<svg viewBox="0 0 18 18" fill="none" xmlns="http://www.w3.org/2000/svg">
<path fill-rule="evenodd" clip-rule="evenodd" d="M7.24939 2.03477C7.24939 1.74482 7.48444 1.50977 7.77439 1.50977H10.2303C10.5202 1.50977 10.7553 1.74482 10.7553 2.03477C10.7553 2.32472 10.5202 2.55977 10.2303 2.55977H7.77439C7.48444 2.55977 7.24939 2.32472 7.24939 2.03477ZM8.91807 5.4502C9.20802 5.4502 9.44307 5.68525 9.44307 5.97519V8.52776L11.5078 8.52775C11.7978 8.52775 12.0328 8.76279 12.0328 9.05274C12.0328 9.34269 11.7978 9.57775 11.5078 9.57775L8.91807 9.57776C8.77883 9.57776 8.64529 9.52245 8.54684 9.42399C8.44838 9.32554 8.39307 9.192 8.39307 9.05276V5.97519C8.39307 5.68525 8.62812 5.4502 8.91807 5.4502ZM14.5446 7.12829C14.7416 7.71408 14.8484 8.34134 14.8484 8.99356C14.8484 12.2223 12.2311 14.8396 9.00234 14.8396C5.77364 14.8396 3.15625 12.2223 3.15625 8.99356C3.15625 5.76485 5.77364 3.14746 9.00234 3.14746C9.71208 3.14746 10.3923 3.27394 11.0216 3.50558C10.8807 3.82361 10.799 4.17366 10.7903 4.5418C10.2377 4.31969 9.63431 4.19746 9.00234 4.19746C6.35353 4.19746 4.20625 6.34475 4.20625 8.99356C4.20625 11.6424 6.35353 13.7896 9.00234 13.7896C11.6512 13.7896 13.7984 11.6424 13.7984 8.99356C13.7984 8.4089 13.6938 7.84868 13.5023 7.3306L13.5126 7.33062C13.8779 7.33062 14.2263 7.25871 14.5446 7.12829ZM13.5125 6.59816C14.6118 6.59816 15.5029 5.70699 15.5029 4.60767C15.5029 3.50836 14.6118 2.61719 13.5125 2.61719C12.4131 2.61719 11.522 3.50836 11.522 4.60767C11.522 5.70699 12.4131 6.59816 13.5125 6.59816ZM13.5125 5.54816C14.0319 5.54816 14.4529 5.12709 14.4529 4.60767C14.4529 4.08826 14.0319 3.66719 13.5125 3.66719C12.993 3.66719 12.572 4.08826 12.572 4.60767C12.572 5.12709 12.993 5.54816 13.5125 5.54816Z" fill="white"/>
</svg>
