<svg width="98" height="116" viewBox="0 0 98 116" fill="none" xmlns="http://www.w3.org/2000/svg">
	<path d="M33.0509 27.7058C35.3544 26.5826 38.1525 26.8165 40.3881 28.2897L54.3644 37.4983C56.3929 38.8339 57.6285 41.1535 57.6285 43.5945V59.6242C57.6285 62.0652 56.3929 64.358 54.3644 65.6508L40.3881 74.5612C38.1525 75.9861 35.3544 76.1611 33.0509 74.9879L17.1158 66.8829C14.5569 65.5811 12.9641 63.0562 12.9641 60.2724V41.9963C12.9641 39.2125 14.5587 36.7197 17.1158 35.4733L33.0509 27.7058Z" fill="#19CC45" fill-opacity="0.78"/>
	<path d="M33.27 28.1552L33.27 28.1552C35.4038 27.1148 38.0145 27.3244 40.113 28.7072L40.113 28.7072L54.0893 37.9158L54.0894 37.9159C55.9754 39.1577 57.1285 41.3192 57.1285 43.5945V59.6242C57.1285 61.8989 55.9763 64.0305 54.0957 65.2291L54.0956 65.2292L40.1194 74.1395C40.1194 74.1395 40.1193 74.1396 40.1193 74.1396C38.0258 75.4739 35.4159 75.6314 33.2778 74.5424L33.2776 74.5423L17.3425 66.4372C14.9434 65.2168 13.4641 62.8594 13.4641 60.2724V41.9963C13.4641 39.4106 14.9434 37.0884 17.3348 35.9228L17.3348 35.9228L33.27 28.1552Z" stroke="white" stroke-opacity="0.18"/>
	<path d="M64.1289 44.4016C66.0735 43.2785 68.4341 43.3677 70.3251 44.6123L82.1836 52.412C83.9103 53.5477 84.9639 55.6155 84.9639 57.8476V72.5024C84.9639 74.7344 83.9103 76.8754 82.1836 78.1325L70.3251 86.7608C68.4341 88.1357 66.0717 88.3911 64.1289 87.4036L50.7366 80.6056C48.5956 79.5182 47.2617 77.2879 47.2617 74.7666V58.2154C47.2617 55.6941 48.5956 53.3709 50.7366 52.1353L64.1289 44.4016Z" fill="#0075FF" fill-opacity="0.78"/>
	<path d="M64.379 44.8346L64.379 44.8346C66.1558 43.8083 68.3134 43.8868 70.0502 45.03L70.0504 45.0301L81.9088 52.8298L82.1836 52.412L81.9089 52.8298C83.4813 53.864 84.4639 55.7667 84.4639 57.8476V72.5024C84.4639 74.584 83.4794 76.5707 81.8893 77.7283L70.0311 86.3564C70.031 86.3564 70.031 86.3564 70.0309 86.3565C68.2756 87.6327 66.1134 87.8514 64.3555 86.9579L64.3552 86.9578L50.963 80.1599C48.9988 79.1622 47.7617 77.1099 47.7617 74.7666V58.2154C47.7617 55.8697 49.0028 53.7132 50.9865 52.5683L50.9866 52.5683L64.379 44.8346Z" stroke="white" stroke-opacity="0.18"/>
	<g filter="url(#filter0_d_2_51)">
		<path fill-rule="evenodd" clip-rule="evenodd" d="M32.3802 38.9166C27.7328 42.0857 29.2877 51.6729 35.7651 51.7415C43.2469 51.8195 43.8772 38.3989 35.7651 38.0049C34.5938 37.9478 33.1415 38.3989 32.3802 38.9166ZM45.9958 61.5571C46.049 62.1262 45.618 62.6039 45.058 62.6154L25.8591 62.9998C25.3427 63.0094 24.9364 62.5716 25.0086 62.0729C25.8439 56.34 31.1235 54.2958 35.7765 54.3129C40.4391 54.3281 45.4662 55.8223 45.9939 61.5571H45.9958Z" fill="white" fill-opacity="0.9" shape-rendering="crispEdges"/>
	</g>
	<g filter="url(#filter1_d_2_51)">
		<path fill-rule="evenodd" clip-rule="evenodd" d="M67.0586 73.9953C68.0925 73.9242 68.8949 73.0648 68.8949 72.0285V67.5054L74.187 67.2724C75.2011 67.2277 76.0003 66.3926 76.0003 65.3775C76.0003 64.3069 75.1149 63.4485 74.0448 63.4816L68.8949 63.6411V58.9884C68.8949 57.8929 68.0019 57.0075 66.9065 57.017C65.8243 57.0263 64.952 57.9061 64.952 58.9884V63.7632L59.7883 63.9231C58.7138 63.9564 57.86 64.837 57.86 65.912C57.86 67.0453 58.8052 67.9498 59.9374 67.8999L64.952 67.6791V72.0285C64.952 73.1705 65.9193 74.0736 67.0586 73.9953Z" fill="white" fill-opacity="0.9" shape-rendering="crispEdges"/>
	</g>
	<defs>
		<filter id="filter0_d_2_51" x="15.0003" y="32" width="41" height="45" filterUnits="userSpaceOnUse" color-interpolation-filters="sRGB">
			<feFlood flood-opacity="0" result="BackgroundImageFix"/>
			<feColorMatrix in="SourceAlpha" type="matrix" values="0 0 0 0 0 0 0 0 0 0 0 0 0 0 0 0 0 0 127 0" result="hardAlpha"/>
			<feOffset dy="4"/>
			<feGaussianBlur stdDeviation="5"/>
			<feComposite in2="hardAlpha" operator="out"/>
			<feColorMatrix type="matrix" values="0 0 0 0 0 0 0 0 0 0 0 0 0 0 0 0 0 0 0.05 0"/>
			<feBlend mode="normal" in2="BackgroundImageFix" result="effect1_dropShadow_2_51"/>
			<feBlend mode="normal" in="SourceGraphic" in2="effect1_dropShadow_2_51" result="shape"/>
		</filter>
		<filter id="filter1_d_2_51" x="47.86" y="51.0169" width="38.1402" height="36.9832" filterUnits="userSpaceOnUse" color-interpolation-filters="sRGB">
			<feFlood flood-opacity="0" result="BackgroundImageFix"/>
			<feColorMatrix in="SourceAlpha" type="matrix" values="0 0 0 0 0 0 0 0 0 0 0 0 0 0 0 0 0 0 127 0" result="hardAlpha"/>
			<feOffset dy="4"/>
			<feGaussianBlur stdDeviation="5"/>
			<feComposite in2="hardAlpha" operator="out"/>
			<feColorMatrix type="matrix" values="0 0 0 0 0 0 0 0 0 0 0 0 0 0 0 0 0 0 0.05 0"/>
			<feBlend mode="normal" in2="BackgroundImageFix" result="effect1_dropShadow_2_51"/>
			<feBlend mode="normal" in="SourceGraphic" in2="effect1_dropShadow_2_51" result="shape"/>
		</filter>
	</defs>
</svg>
