<svg width="98" height="113" viewBox="0 0 98 113" fill="none" xmlns="http://www.w3.org/2000/svg">
	<path d="M66.7143 21.0625C68.5119 20.189 70.692 20.3426 72.4544 21.4554L82.252 27.6338C83.9557 28.7087 85 30.5894 85 32.5697V43.365C85 45.3453 83.9557 47.1642 82.252 48.1374L72.4544 53.7295C70.692 54.7366 68.5095 54.7605 66.7143 53.7773L56.1517 48.0058C54.2086 46.9448 53 44.9644 53 42.8285V31.1877C53 29.0518 54.2086 27.1452 56.1517 26.1999L66.7143 21.0625Z" fill="#0075FF" fill-opacity="0.78"/>
	<path d="M72.1877 21.8783L72.1874 21.8782C70.5626 20.8522 68.5658 20.7188 66.933 21.5121L72.1877 21.8783ZM72.1877 21.8783L81.9852 28.0567C83.5461 29.0415 84.5 30.7638 84.5 32.5697V43.365C84.5 45.1688 83.5494 46.8203 82.0041 47.7031C82.0041 47.7032 82.004 47.7032 82.004 47.7032L72.2065 53.2952L72.2063 53.2953C70.5948 54.2162 68.5972 54.2385 66.9545 53.3388L66.954 53.3385L56.3914 47.567L56.3913 47.5669C54.6007 46.5892 53.5 44.7726 53.5 42.8285V31.1877C53.5 29.247 54.5959 27.5128 56.3704 26.6495C56.3704 26.6495 56.3704 26.6495 56.3704 26.6495L66.9328 21.5122L72.1877 21.8783Z" stroke="white" stroke-opacity="0.18"/>
	<path d="M34.9772 31.4523C37.6783 30.0499 40.9444 30.2093 43.5738 31.8454L58.0054 40.8161C60.4824 42.3565 62 45.14 62 48.1168V64.3542C62 67.3331 60.4847 70.1505 58.0054 71.7462L43.5738 81.0463C40.9444 82.7418 37.6783 82.9756 34.9772 81.6348L18.8778 73.6436C15.8762 72.1542 14 69.1689 14 65.8436V47.7194C14 44.3942 15.874 41.3685 18.8778 39.8089L34.9772 31.4523Z" fill="#19CC45" fill-opacity="0.78"/>
	<path d="M35.2075 31.896L35.2075 31.896C37.7468 30.5777 40.8251 30.724 43.3097 32.2699L43.3098 32.27L57.7414 41.2407C60.0671 42.6871 61.5 45.3074 61.5 48.1168V64.3542C61.5 67.1665 60.0682 69.824 57.7348 71.3258L57.7346 71.3259L43.303 80.626L43.3028 80.6261C40.8129 82.2317 37.7339 82.4449 35.1995 81.187L19.1001 73.1958L19.1 73.1957C16.2655 71.7892 14.5 68.9755 14.5 65.8436V47.7194C14.5 44.5864 16.265 41.7289 19.1081 40.2527C19.1082 40.2527 19.1082 40.2527 19.1082 40.2527L35.2075 31.896Z" stroke="white" stroke-opacity="0.18"/>
	<path d="M65.7583 61.2709C67.4399 60.2913 69.486 60.2441 71.1437 61.1361L80.3925 66.1171C82.0075 66.9866 83 68.6807 83 70.5544V80.7749C83 82.6509 82.0075 84.455 80.3925 85.5088L71.1437 91.539C69.486 92.6197 67.4426 92.8039 65.7583 92.0153L55.9188 87.4028C54.1175 86.558 53 84.801 53 82.8059V71.9272C53 69.9321 54.1202 68.0471 55.9188 66.9978L65.7583 61.2686V61.2709Z" fill="#C5E7FE" fill-opacity="0.8"/>
	<path d="M65.2583 62.1384L56.1708 67.4297C54.5165 68.3947 53.5 70.1203 53.5 71.9272V82.8059C53.5 84.6072 54.5055 86.1877 56.1311 86.9501L65.2583 62.1384ZM65.2583 62.1384V62.1408L66.01 61.7029C67.5462 60.808 69.4072 60.7696 70.9066 61.5763C70.9067 61.5763 70.9067 61.5764 70.9068 61.5764L80.1554 66.5573L80.1555 66.5574C81.6034 67.3369 82.5 68.8587 82.5 70.5544V80.7749C82.5 82.4767 81.5973 84.1257 80.1193 85.09L70.8706 91.1202C69.3458 92.1143 67.4853 92.2718 65.9705 91.5626C65.9705 91.5626 65.9704 91.5626 65.9703 91.5625L56.1311 86.9501L65.2583 62.1384Z" stroke="white" stroke-opacity="0.24"/>
	<g filter="url(#filter0_d_6_92)">
		<path fill-rule="evenodd" clip-rule="evenodd" d="M38.8577 69.4874C45.6488 69.2069 51 63.3316 51 56.3555C51 49.3794 45.6488 43.6251 38.8577 43.5019C32.0667 43.3787 26 49.254 26 56.6424C26 64.0307 31.8491 69.7786 38.8577 69.4896V69.4874ZM34.4036 55.4949L36.7944 58.1744L43.2199 50.7797C43.5339 50.4185 44.043 50.4185 44.3547 50.7797L45.2451 51.8103C45.5568 52.1694 45.5568 52.7538 45.2451 53.115L37.3797 62.25C37.0568 62.6261 36.532 62.6388 36.2068 62.2797L32.2707 57.9173C31.9388 57.5497 31.9388 56.9483 32.2707 56.5722L33.2105 55.5034C33.5401 55.1294 34.0717 55.1252 34.3991 55.4928L34.4036 55.4949Z" fill="white" fill-opacity="0.9" shape-rendering="crispEdges"/>
	</g>
	<g filter="url(#filter1_d_6_92)">
		<path d="M67.3541 29.3456V30.5472C67.3541 30.9898 67.0213 31.3342 66.6113 31.3157C66.2018 31.2972 65.8668 30.9215 65.8668 30.4769V29.2714L65.873 29.1677C65.9187 28.7697 66.2351 28.4789 66.6175 28.5012C67.0275 28.5252 67.3563 28.9048 67.3541 29.3456Z" fill="white" fill-opacity="0.9" shape-rendering="crispEdges"/>
		<path d="M66.3017 35.4748L67.4065 35.5117C67.5357 35.516 67.6502 35.5833 67.7229 35.684C67.776 35.7567 67.8075 35.8467 67.8075 35.9431V37.0876C67.8075 37.3171 67.6288 37.4988 67.4065 37.4932L66.3017 37.4616C66.0772 37.4543 65.8961 37.2617 65.8961 37.0302V35.8804C65.8961 35.6489 66.0794 35.4674 66.3017 35.4748Z" fill="white" fill-opacity="0.9" shape-rendering="crispEdges"/>
		<path d="M70.2435 35.6079L69.1533 35.5709C68.9327 35.5654 68.7539 35.745 68.7539 35.9745V37.1152C68.7539 37.3449 68.9327 37.5375 69.1533 37.5431L70.2435 37.5744C70.3224 37.5765 70.3958 37.5542 70.4572 37.514C70.5661 37.4434 70.6383 37.3171 70.6383 37.1709V36.0358C70.6383 35.806 70.4617 35.6155 70.2435 35.6079Z" fill="white" fill-opacity="0.9" shape-rendering="crispEdges"/>
		<path d="M67.4043 38.4821L66.2994 38.4522C66.203 38.4499 66.1138 38.4828 66.0439 38.5398C65.9525 38.6144 65.8939 38.7303 65.8939 38.8616V40.0114C65.8939 40.1027 65.9221 40.1883 65.97 40.2584C66.0439 40.3656 66.1635 40.437 66.2994 40.4393L67.4043 40.4615C67.6265 40.4651 67.8053 40.2837 67.8053 40.0521V38.9079C67.8053 38.6782 67.6265 38.4856 67.4043 38.4821Z" fill="white" fill-opacity="0.9" shape-rendering="crispEdges"/>
		<path d="M69.1533 38.5281L70.2435 38.556C70.2965 38.5572 70.3473 38.5696 70.3929 38.5906C70.4082 38.5975 70.4228 38.6053 70.4369 38.6139C70.5571 38.6878 70.6383 38.8247 70.6383 38.98V40.1151C70.6383 40.3429 70.4617 40.5243 70.2435 40.5208L69.1533 40.4985C69.12 40.498 69.0873 40.4932 69.0562 40.4846C69.0297 40.477 69.0044 40.4669 68.9801 40.4542C68.948 40.4373 68.9181 40.416 68.891 40.391C68.807 40.313 68.7539 40.1997 68.7539 40.0744V38.9337C68.7539 38.7042 68.9327 38.5228 69.1533 38.5281Z" fill="white" fill-opacity="0.9" shape-rendering="crispEdges"/>
		<path d="M71.9659 35.6656L73.0392 35.7025C73.2558 35.7101 73.4284 35.8989 73.4284 36.1266V37.2544C73.4284 37.4821 73.2536 37.66 73.0392 37.6544L71.9659 37.6228C71.7494 37.6172 71.5728 37.4264 71.5728 37.1987V36.0656C71.5728 35.8376 71.7494 35.6582 71.9659 35.6656Z" fill="white" fill-opacity="0.9" shape-rendering="crispEdges"/>
		<path fill-rule="evenodd" clip-rule="evenodd" d="M74.1063 30.5399V31.0768C74.108 31.9657 73.4549 32.6583 72.6439 32.6249C71.8328 32.5915 71.169 31.8362 71.169 30.9417V30.401L68.1279 30.2547V30.799C68.1279 31.7008 67.4522 32.4045 66.6158 32.3693C65.7732 32.3341 65.0913 31.5677 65.0913 30.6583V30.1085L63.9114 30.0528C62.8612 29.9992 62.0023 30.8731 62 32.0047C62 32.0601 62.0023 32.1175 62.0062 32.175V43.2482C62.0062 43.8593 62.4704 44.3613 63.04 44.3669L76.0409 44.5C76.571 44.5055 76.9997 44.0334 76.9997 43.4463V32.8063C77.0183 31.6843 76.236 30.7102 75.2231 30.5935L74.1063 30.5399ZM64.0676 42.1743L75.0753 42.352V33.8544L64.0676 33.425V42.1743Z" fill="white" fill-opacity="0.9" shape-rendering="crispEdges"/>
		<path d="M73.3201 30.7934V29.6732C73.3201 29.2603 73.0184 28.9121 72.6422 28.8919C72.2654 28.8714 71.9597 29.19 71.9597 29.6047V30.7286C71.9597 31.1416 72.2632 31.4898 72.6399 31.5082C73.0167 31.5249 73.3201 31.2046 73.3201 30.7934Z" fill="white" fill-opacity="0.9" shape-rendering="crispEdges"/>
	</g>
	<g filter="url(#filter2_d_6_92)">
		<path d="M69.7668 70.8686C69.5383 70.6178 69.2315 70.4858 68.9084 70.5012L62.8376 70.7982C62.3761 70.8202 62 71.2647 62 71.7883V72.4792L70.699 72.0194L69.7668 70.8686Z" fill="white" fill-opacity="0.9" shape-rendering="crispEdges"/>
		<path d="M74.9977 73.8037C74.9977 73.2954 74.6447 72.9016 74.2086 72.9258L62 73.6035V82.6133C62 83.137 62.3738 83.533 62.8376 83.4978L74.2109 82.6001C74.647 82.5649 75 82.1249 75 81.6166V73.8059L74.9977 73.8037Z" fill="white" fill-opacity="0.9" shape-rendering="crispEdges"/>
	</g>
	<defs>
		<filter id="filter0_d_6_92" x="16" y="37.5" width="45" height="46" filterUnits="userSpaceOnUse" color-interpolation-filters="sRGB">
			<feFlood flood-opacity="0" result="BackgroundImageFix"/>
			<feColorMatrix in="SourceAlpha" type="matrix" values="0 0 0 0 0 0 0 0 0 0 0 0 0 0 0 0 0 0 127 0" result="hardAlpha"/>
			<feOffset dy="4"/>
			<feGaussianBlur stdDeviation="5"/>
			<feComposite in2="hardAlpha" operator="out"/>
			<feColorMatrix type="matrix" values="0 0 0 0 0 0 0 0 0 0 0 0 0 0 0 0 0 0 0.05 0"/>
			<feBlend mode="normal" in2="BackgroundImageFix" result="effect1_dropShadow_6_92"/>
			<feBlend mode="normal" in="SourceGraphic" in2="effect1_dropShadow_6_92" result="shape"/>
		</filter>
		<filter id="filter1_d_6_92" x="52" y="22.5" width="35" height="36" filterUnits="userSpaceOnUse" color-interpolation-filters="sRGB">
			<feFlood flood-opacity="0" result="BackgroundImageFix"/>
			<feColorMatrix in="SourceAlpha" type="matrix" values="0 0 0 0 0 0 0 0 0 0 0 0 0 0 0 0 0 0 127 0" result="hardAlpha"/>
			<feOffset dy="4"/>
			<feGaussianBlur stdDeviation="5"/>
			<feComposite in2="hardAlpha" operator="out"/>
			<feColorMatrix type="matrix" values="0 0 0 0 0 0 0 0 0 0 0 0 0 0 0 0 0 0 0.05 0"/>
			<feBlend mode="normal" in2="BackgroundImageFix" result="effect1_dropShadow_6_92"/>
			<feBlend mode="normal" in="SourceGraphic" in2="effect1_dropShadow_6_92" result="shape"/>
		</filter>
		<filter id="filter2_d_6_92" x="52" y="64.5" width="33" height="33" filterUnits="userSpaceOnUse" color-interpolation-filters="sRGB">
			<feFlood flood-opacity="0" result="BackgroundImageFix"/>
			<feColorMatrix in="SourceAlpha" type="matrix" values="0 0 0 0 0 0 0 0 0 0 0 0 0 0 0 0 0 0 127 0" result="hardAlpha"/>
			<feOffset dy="4"/>
			<feGaussianBlur stdDeviation="5"/>
			<feComposite in2="hardAlpha" operator="out"/>
			<feColorMatrix type="matrix" values="0 0 0 0 0 0 0 0 0 0 0 0 0 0 0 0 0 0 0.05 0"/>
			<feBlend mode="normal" in2="BackgroundImageFix" result="effect1_dropShadow_6_92"/>
			<feBlend mode="normal" in="SourceGraphic" in2="effect1_dropShadow_6_92" result="shape"/>
		</filter>
	</defs>
</svg>
