<svg width="24" height="24" viewBox="0 0 24 24" fill="none" xmlns="http://www.w3.org/2000/svg">
	<rect width="24" height="24" rx="12" fill="#E5F9FF"/>
	<path fill-rule="evenodd" clip-rule="evenodd" d="M7.125 8.625C7.125 7.79657 7.79657 7.125 8.625 7.125H15.3765C16.2049 7.125 16.8765 7.79657 16.8765 8.625V15.3765C16.8765 16.2049 16.2049 16.8765 15.3765 16.8765H8.625C7.79657 16.8765 7.125 16.2049 7.125 15.3765V8.625ZM8.625 8.175H15.3765C15.625 8.175 15.8265 8.37647 15.8265 8.625V15.3765C15.8265 15.625 15.625 15.8265 15.3765 15.8265H8.625C8.37647 15.8265 8.175 15.625 8.175 15.3765V8.625C8.175 8.37647 8.37647 8.175 8.625 8.175Z" fill="#00ACE3"/>
</svg>
