<svg xmlns="http://www.w3.org/2000/svg" width="20" height="20" fill="none">
	<path fill="#828B95" fill-rule="evenodd" d="M7.391 5.785a.583.583 0 1 0-.829-.82L5.527 6.01l-.483-.384a.583.583 0 0 0-.726.913l.893.71a.583.583 0 0 0 .778-.047L7.39 5.785ZM9.264 5.5a.583.583 0 1 0 0 1.167h5.739a.583.583 0 0 0 0-1.167H9.264Zm0 3.917a.583.583 0 1 0 0 1.167h5.739a.583.583 0 0 0 0-1.167H9.264Zm-.583 4.5c0-.322.261-.583.583-.583h5.739a.583.583 0 0 1 0 1.166H9.264a.583.583 0 0 1-.583-.583Zm-1.294-1.124a.583.583 0 0 1 .004.825L5.99 15.037a.583.583 0 0 1-.778.046l-.893-.709a.583.583 0 0 1 .726-.914l.483.384 1.035-1.046a.583.583 0 0 1 .825-.005Zm.004-3.092a.583.583 0 1 0-.829-.82L5.527 9.927l-.483-.383a.583.583 0 0 0-.726.913l.893.71a.583.583 0 0 0 .778-.047L7.39 9.7Z" clip-rule="evenodd"/>
</svg>