<svg width="13" height="13" viewBox="0 0 13 13" fill="none" xmlns="http://www.w3.org/2000/svg">
	<path d="M5.77536 7.22503H9.38632V5.78055H7.21965V3.25184H5.77536V7.22503Z" fill="white"/>
	<path fill-rule="evenodd" clip-rule="evenodd" d="M6.5 0C2.91016 0 0 2.91005 0 6.49991C0 10.0898 2.91016 13 6.5 13C10.0898 13 13 10.0898 13 6.49991C13 2.91005 10.0898 0 6.5 0ZM6.5 11.5555C3.7079 11.5555 1.44452 9.29197 1.44452 6.49991C1.44452 3.70783 3.7079 1.44449 6.5 1.44449C9.29233 1.44449 11.5557 3.70783 11.5557 6.49991C11.5557 9.29197 9.29233 11.5555 6.5 11.5555Z" fill="white"/>
</svg>
