<svg width="24" height="24" viewBox="0 0 24 24" fill="none" xmlns="http://www.w3.org/2000/svg">
	<path fill-rule="evenodd" clip-rule="evenodd" d="M6.35665 3.86548C6.74325 3.86548 7.05665 4.17888 7.05665 4.56548V5.25024H7.74156C8.12815 5.25024 8.44156 5.56364 8.44156 5.95024C8.44156 6.33684 8.12815 6.65024 7.74156 6.65024H7.05665V7.33613C7.05665 7.72273 6.74325 8.03613 6.35665 8.03613C5.97005 8.03613 5.65665 7.72273 5.65665 7.33613V6.65024H4.9709C4.58431 6.65024 4.2709 6.33684 4.2709 5.95024C4.2709 5.56364 4.58431 5.25024 4.9709 5.25024H5.65665V4.56548C5.65665 4.17888 5.97005 3.86548 6.35665 3.86548ZM11.2628 4.90233C11.5528 4.11882 12.661 4.11882 12.9509 4.90233L14.4578 8.97411C14.5895 9.32991 14.87 9.61044 15.2258 9.74211L19.2976 11.249C20.0811 11.5389 20.0811 12.6471 19.2976 12.9371L15.2258 14.444C14.87 14.5756 14.5895 14.8562 14.4578 15.212L12.9509 19.2837C12.661 20.0673 11.5528 20.0673 11.2628 19.2837L9.75593 15.212C9.62426 14.8562 9.34373 14.5756 8.98794 14.444L4.91616 12.9371C4.13264 12.6471 4.13264 11.5389 4.91616 11.249L8.98794 9.74211C9.34373 9.61044 9.62426 9.32991 9.75593 8.97411L11.2628 4.90233ZM12.1069 6.65531L11.0689 9.46002C10.7954 10.199 10.2128 10.7816 9.47384 11.0551L6.66914 12.093L9.47384 13.131C10.2128 13.4045 10.7954 13.9871 11.0689 14.7261L12.1069 17.5308L13.1448 14.7261C13.4183 13.9871 14.0009 13.4045 14.7399 13.131L17.5446 12.093L14.7399 11.0551C14.0009 10.7816 13.4183 10.199 13.1448 9.46002L12.1069 6.65531ZM17.3845 16.5334C17.7711 16.5334 18.0845 16.8468 18.0845 17.2334V17.9163H18.7659C19.1525 17.9163 19.4659 18.2297 19.4659 18.6163C19.4659 19.0029 19.1525 19.3163 18.7659 19.3163H18.0845V19.9977C18.0845 20.3843 17.7711 20.6977 17.3845 20.6977C16.9979 20.6977 16.6845 20.3843 16.6845 19.9977V19.3163H16.0017C15.6151 19.3163 15.3017 19.0029 15.3017 18.6163C15.3017 18.2297 15.6151 17.9163 16.0017 17.9163H16.6845V17.2334C16.6845 16.8468 16.9979 16.5334 17.3845 16.5334Z" fill="#853AF5"/>
</svg>
