<svg width="14" height="13" viewBox="0 0 14 13" fill="none" xmlns="http://www.w3.org/2000/svg">
	<path d="M6.27536 7.22503H9.88632V5.78055H7.71965V3.25184H6.27536V7.22503Z" fill="black"/>
	<path fill-rule="evenodd" clip-rule="evenodd" d="M7 0C3.41016 0 0.5 2.91005 0.5 6.49991C0.5 10.0898 3.41016 13 7 13C10.5898 13 13.5 10.0898 13.5 6.49991C13.5 2.91005 10.5898 0 7 0ZM7 11.5555C4.2079 11.5555 1.94452 9.29197 1.94452 6.49991C1.94452 3.70783 4.2079 1.44449 7 1.44449C9.79233 1.44449 12.0557 3.70783 12.0557 6.49991C12.0557 9.29197 9.79233 11.5555 7 11.5555Z" fill="black"/>
</svg>
