<svg width="24" height="24" viewBox="0 0 24 24" fill="none" xmlns="http://www.w3.org/2000/svg">
	<path fill-rule="evenodd" clip-rule="evenodd" d="M10.743 5.18996C10.8238 5.13047 11.0193 5.0234 11.2956 4.9318C11.5673 4.84171 11.8189 4.79941 11.992 4.79941C12.8419 4.79941 13.3696 5.12951 13.716 5.58316C14.0953 6.07984 14.3177 6.81611 14.298 7.635C14.2785 8.45266 14.02 9.21631 13.6096 9.74278C13.2244 10.2368 12.7033 10.5376 11.9919 10.5376C10.8816 10.5376 10.0769 9.76434 9.79299 8.47097C9.4978 7.1262 9.91897 5.79651 10.743 5.18996ZM11.9919 11.9376C8.04675 11.9376 7.11974 6.1187 9.91299 4.06249C10.3768 3.72106 11.2684 3.39941 11.992 3.39941C17.1373 3.39941 16.7284 11.9376 11.9919 11.9376ZM7.56045 15.516C6.77125 16.2586 6.37087 17.2252 6.24478 18.1994H13.0727C13.4593 18.1994 13.7727 18.5128 13.7727 18.8994C13.7727 19.286 13.4593 19.5994 13.0727 19.5994H6C5.35411 19.5994 4.76409 19.0644 4.82236 18.3436C4.92934 17.0204 5.43554 15.5931 6.60105 14.4964C7.77221 13.3944 9.53103 12.6994 12 12.6994C12.5917 12.6994 13.1426 12.7392 13.6547 12.8151C14.0372 12.8718 14.3012 13.2278 14.2445 13.6102C14.1879 13.9926 13.8319 14.2567 13.4495 14.2C13.0111 14.135 12.5291 14.0994 12 14.0994C9.79821 14.0994 8.4134 14.7134 7.56045 15.516ZM17 13.1994C17.3866 13.1994 17.7 13.5128 17.7 13.8994V15.6994H19.5C19.8866 15.6994 20.2 16.0128 20.2 16.3994C20.2 16.786 19.8866 17.0994 19.5 17.0994H17.7V18.8994C17.7 19.286 17.3866 19.5994 17 19.5994C16.6134 19.5994 16.3 19.286 16.3 18.8994V17.0994H14.5C14.1134 17.0994 13.8 16.786 13.8 16.3994C13.8 16.0128 14.1134 15.6994 14.5 15.6994H16.3V13.8994C16.3 13.5128 16.6134 13.1994 17 13.1994Z" fill="#10B769"/>
</svg>
