<svg width="24" height="24" viewBox="0 0 24 24" fill="none" xmlns="http://www.w3.org/2000/svg">
	<path fill-rule="evenodd" clip-rule="evenodd" d="M10.1602 5.58245C7.63065 7.38863 8.47015 12.5 12.0429 12.5C16.3322 12.5 16.7026 5 12.0429 5C11.3876 5 10.5803 5.28253 10.1602 5.58245ZM11.4419 6.51155C11.1981 6.58995 11.033 6.6795 10.9738 6.72182C10.2904 7.20974 9.92581 8.29224 10.1787 9.40953C10.4181 10.4674 11.0893 11.1 12.0429 11.1C12.6597 11.1 13.0968 10.8488 13.4165 10.4511C13.7612 10.0222 13.9825 9.39374 13.9992 8.71544C14.016 8.03626 13.8255 7.43631 13.5119 7.03786C13.2297 6.67939 12.7883 6.4 12.0429 6.4C11.8983 6.4 11.6806 6.43479 11.4419 6.51155ZM7.83666 6.73145C7.38177 6.76993 6.87 6.96327 6.58957 7.16719C4.70183 8.53988 5.32833 12.4245 7.99455 12.4245C8.11018 12.4245 8.222 12.4171 8.32995 12.4028C8.26495 12.1637 8.11209 11.5986 7.96281 11.0241C7.49426 11.0109 7.106 10.7045 6.95099 10.0069C6.78031 9.23884 7.04538 8.56683 7.41296 8.29954C7.41687 8.29704 7.43832 8.28332 7.48071 8.26288C7.49944 8.25385 7.52007 8.24456 7.54231 8.23525C7.57195 7.72695 7.668 7.21739 7.83666 6.73145ZM5.02591 13.5114C5.7157 13.0781 6.51931 12.8776 7.29068 12.8066C7.28859 12.8432 7.28768 12.8845 7.28734 12.9311C7.28615 13.0971 7.24922 13.2619 7.1515 13.3961C6.99006 13.6178 6.75582 13.8722 6.49084 14.16L6.49061 14.1603C6.39659 14.2624 6.2987 14.3687 6.19883 14.4793C6.0468 14.5412 5.90339 14.6135 5.77056 14.6969C5.28951 14.9991 4.89978 15.475 4.75782 16.2749H4.87782C4.65271 16.7055 4.48237 17.172 4.41125 17.6749H4.37523C3.79343 17.6749 3.26847 17.1913 3.31545 16.5479C3.42179 15.0915 4.08106 14.1049 5.02591 13.5114ZM15.994 12.4243C19.0994 12.4243 19.4522 7.05961 16.2955 6.73926C16.4586 7.2322 16.547 7.74779 16.5682 8.2591C16.6673 8.31816 16.7423 8.39203 16.8035 8.47116C16.9814 8.70136 17.1099 9.08021 17.0988 9.54039C17.0876 9.99946 16.9398 10.4061 16.7344 10.6664C16.5662 10.8796 16.3582 11.0067 16.059 11.0226C16.0025 11.2132 15.9468 11.3961 15.8954 11.5649L15.8953 11.5651L15.8952 11.5654L15.8948 11.5667C15.7834 11.9327 15.6921 12.2326 15.6553 12.4025C15.7642 12.4169 15.8772 12.4243 15.994 12.4243ZM16.7084 12.9299C16.7064 12.8834 16.7035 12.8422 16.6992 12.8057C17.4738 12.8758 18.2815 13.0762 18.9743 13.5114C19.9192 14.1048 20.5784 15.0915 20.6848 16.5478C20.7318 17.1912 20.2068 17.6749 19.625 17.6749H19.5888C19.5178 17.1719 19.3477 16.7055 19.1227 16.2749H19.2424C19.1004 15.475 18.7107 14.999 18.2297 14.6969C18.0972 14.6137 17.9542 14.5416 17.8026 14.4797C17.7021 14.3684 17.6036 14.2614 17.509 14.1587C17.244 13.8709 17.0098 13.6165 16.8484 13.3948C16.7506 13.2606 16.7154 13.0957 16.7084 12.9299ZM12.0003 13C10.6468 13 9.14026 13.2151 7.914 13.9184C6.64596 14.6456 5.72402 15.8721 5.57237 17.7421C5.51414 18.4601 6.10145 19 6.75031 19H17.2503C17.8992 19 18.4865 18.4601 18.4282 17.7421C18.2766 15.8721 17.3546 14.6456 16.0866 13.9184C14.8603 13.2151 13.3538 13 12.0003 13ZM15.3901 15.1329C16.2176 15.6074 16.8378 16.3601 17.0054 17.6H6.99525C7.16278 16.3601 7.78303 15.6074 8.61051 15.1329C9.53509 14.6026 10.7613 14.4 12.0003 14.4C13.2393 14.4 14.4655 14.6026 15.3901 15.1329Z" fill="#0075FF"/>
</svg>
