<svg width="24" height="24" viewBox="0 0 24 24" fill="none" xmlns="http://www.w3.org/2000/svg">
	<path fill-rule="evenodd" clip-rule="evenodd" d="M12.1066 4.20026C14.4656 4.19436 16.8364 4.60696 18.6712 5.50511C19.0743 5.70248 19.3082 6.10481 19.3274 6.51514C19.5865 12.0519 18.0952 15.5072 16.3638 17.6209C14.6433 19.7212 12.7432 20.4271 12.284 20.5739C12.0976 20.6335 11.9013 20.634 11.7149 20.576C11.2542 20.4327 9.36521 19.7447 7.65001 17.6507C5.92462 15.5444 4.43422 12.0872 4.66657 6.5157C4.68475 6.07976 4.94443 5.65994 5.37649 5.47326C7.32374 4.63194 9.74395 4.20617 12.1066 4.20026ZM6.06025 6.70392C5.86841 11.9043 7.26782 14.9748 8.73305 16.7636C10.0629 18.3871 11.4951 19.0131 11.9943 19.1931C12.4969 19.0081 13.9431 18.3668 15.2808 16.7338C16.7532 14.9363 18.1517 11.8677 17.9344 6.70446C16.3631 5.96745 14.2738 5.59484 12.1101 5.60025C9.94822 5.60566 7.77795 5.98841 6.06025 6.70392ZM15.6797 9.55324C15.9523 9.82745 15.9509 10.2707 15.6767 10.5432L12.1374 14.0606C11.8736 14.3228 11.4508 14.3329 11.1748 14.0835L9.18783 12.2887C8.90095 12.0296 8.87846 11.587 9.1376 11.3001C9.39674 11.0132 9.83939 10.9907 10.1263 11.2498L11.621 12.6L14.6898 9.55018C14.964 9.27766 15.4072 9.27903 15.6797 9.55324Z" fill="#0075FF"/>
</svg>
