<svg width="68" height="68" viewBox="0 0 68 68" fill="none" xmlns="http://www.w3.org/2000/svg">
	<path fill-rule="evenodd" clip-rule="evenodd" d="M20.006 14.0259C15.3688 14.0259 11.6096 17.785 11.6096 22.4222V33.3399C11.6096 36.4438 13.2938 39.1543 15.7982 40.6074V44.5671C15.7982 48.0362 19.9926 49.7736 22.4457 47.3205L27.6264 42.1397C27.7563 42.0098 27.8745 41.8751 27.9812 41.7363H39.236C43.8731 41.7363 47.6323 37.9771 47.6323 33.3399V32.4164H48.5535C50.7175 32.4164 52.4718 34.1707 52.4718 36.3347V43.6589C52.4718 45.1602 51.6285 46.471 50.3714 47.1317L48.2761 48.233V52.8511L43.0022 47.5771H36.8998C35.3669 47.5771 34.0396 46.6969 33.3958 45.4144H29.2606C30.0577 48.8972 33.1753 51.4954 36.8998 51.4954H41.3792L45.547 55.6632C48 58.1163 52.1944 56.3789 52.1944 52.9098V50.6001C54.6889 49.289 56.3901 46.6726 56.3901 43.6589V36.3347C56.3901 32.0066 52.8815 28.4981 48.5535 28.4981H47.6323V22.4222C47.6323 17.785 43.8731 14.0259 39.236 14.0259H20.006ZM19.7165 38.3508L17.7647 37.2183C16.4188 36.4374 15.5279 34.9904 15.5279 33.3399V22.4222C15.5279 19.9491 17.5328 17.9442 20.006 17.9442H39.236C41.7091 17.9442 43.714 19.9491 43.714 22.4222V33.3399C43.714 35.8131 41.7091 37.818 39.236 37.818H26.0519L24.8756 39.3472C24.8756 39.3472 24.8672 39.3576 24.8558 39.3691L19.7165 44.5084V38.3508Z" fill="#7AB7FF"/>
</svg>
