<svg xmlns="http://www.w3.org/2000/svg" width="42" height="42" fill="none"><rect width="42" height="42" fill="#fff" fill-opacity=".05" rx="21"/><rect width="41" height="41" x=".5" y=".5" stroke="#fff" stroke-opacity=".25" rx="20.5"/><path fill="#EDEEF0" fill-rule="evenodd" d="M15.158 9.055c.42-1.134 2.024-1.134 2.443 0l.838 2.264a.667.667 0 0 0 .394.394l2.264.838c1.134.42 1.134 2.024 0 2.443l-2.264.838a.667.667 0 0 0-.394.394L17.6 18.49c-.42 1.134-2.024 1.134-2.443 0l-.838-2.264a.667.667 0 0 0-.394-.394l-2.264-.838c-1.134-.42-1.134-2.024 0-2.443l2.264-.838a.667.667 0 0 0 .394-.394l.838-2.264Zm1.221 2.077-.309.835a2.533 2.533 0 0 1-1.496 1.497l-.835.309.835.308c.693.257 1.24.804 1.496 1.497l.31.835.308-.835a2.533 2.533 0 0 1 1.497-1.497l.835-.308-.835-.31a2.533 2.533 0 0 1-1.497-1.496l-.309-.835Zm13.033 1.366a2 2 0 0 0-2.829 0L12.3 26.78a2 2 0 0 0 0 2.828l1.407 1.407a2 2 0 0 0 2.828 0L30.82 16.733a2 2 0 0 0 0-2.828l-1.407-1.407Zm-1.509 1.32a.133.133 0 0 1 .189 0l1.407 1.407a.133.133 0 0 1 0 .188l-2.039 2.039-1.595-1.596 2.038-2.038Zm-3.358 3.358L13.62 28.101a.133.133 0 0 0 0 .188l1.407 1.407a.133.133 0 0 0 .189 0L26.14 18.772l-1.595-1.596Zm3.341 6.682c.42-1.134 2.024-1.134 2.444 0l.277.75a.667.667 0 0 0 .394.394l.75.277c1.134.42 1.134 2.024 0 2.444L31 28a.667.667 0 0 0-.394.394l-.277.75c-.42 1.134-2.024 1.134-2.444 0l-.277-.75a.667.667 0 0 0-.394-.394l-.75-.277c-1.134-.42-1.134-2.024 0-2.444l.75-.277a.667.667 0 0 0 .394-.394l.277-.75Zm1.222 1.899a2.534 2.534 0 0 1-.744.744c.297.193.55.447.744.744.193-.297.447-.55.744-.744a2.533 2.533 0 0 1-.744-.744Z" clip-rule="evenodd"/></svg>