<svg xmlns="http://www.w3.org/2000/svg" width="42" height="42" fill="none"><rect width="42" height="42" fill="#fff" fill-opacity=".05" rx="21"/><rect width="41" height="41" x=".5" y=".5" stroke="#fff" stroke-opacity=".25" rx="20.5"/><path fill="#EDEEF0" fill-rule="evenodd" d="M30.914 12.535a1.582 1.582 0 0 0-1.618-1.596c-4.12.104-7.717 1.38-10.543 4.02l-.011-.005a6.354 6.354 0 0 0-1.002-.378c-.775-.217-1.971-.372-3.018.32h-.001c-.921.611-2.689 2.197-3.701 3.123-.928.848-.549 2.36.634 2.703l2.208.643a8.478 8.478 0 0 0-.24.481 1.567 1.567 0 0 0 .33 1.764l4.014 3.983c.499.495 1.267.61 1.89.268.168-.091.329-.18.484-.268l.746 2.564c.344 1.183 1.855 1.561 2.704.634.926-1.013 2.511-2.78 3.122-3.701l.001-.001c.692-1.047.537-2.244.32-3.018a6.346 6.346 0 0 0-.367-.978c1.391-1.324 2.323-2.658 2.936-4.028.982-2.194 1.098-4.383 1.112-6.53Zm-5.541 11.837c.022.065.043.133.063.203.166.594.161 1.119-.08 1.484-.457.688-1.67 2.07-2.613 3.11L22 26.615c.38-.232.762-.471 1.178-.731l.003-.002c.18-.113.367-.23.563-.35l.021-.014c.58-.383 1.115-.765 1.607-1.147Zm-10.419-4.634.229-.292c.332-.426.654-.836.986-1.347.382-.6.788-1.16 1.216-1.68a4.039 4.039 0 0 0-.149-.046c-.594-.166-1.12-.162-1.484.08-.688.456-2.07 1.67-3.11 2.613l2.312.672Zm2.788-.633c2.618-4.12 6.477-6.095 11.303-6.29-.025 1.99-.172 3.756-.947 5.488-.805 1.799-2.335 3.66-5.35 5.651-.195.122-.38.238-.56.349-1.092.682-1.913 1.194-3.05 1.823l-3.725-3.698c.267-.535.578-.975.941-1.448l.271-.349c.342-.436.73-.93 1.111-1.518l.006-.008Zm6.234 1.54a2.727 2.727 0 1 0 0-5.454 2.727 2.727 0 0 0 0 5.454Zm0-1.867a.86.86 0 1 0 0-1.72.86.86 0 0 0 0 1.72Zm-9.673 7.088a.8.8 0 0 0-1.4-.775c-.27.488-.718 1.554-.738 3.357a.8.8 0 0 0 .716.804c.868.092 1.702-.017 2.342-.164.323-.074.606-.16.83-.24.203-.072.411-.16.552-.25a.8.8 0 1 0-.862-1.347c.006-.004.005-.003-.006.002a2.595 2.595 0 0 1-.223.089 6.235 6.235 0 0 1-1.705.337c.106-1.027.376-1.6.494-1.813Z" clip-rule="evenodd"/></svg>