<svg width="18" height="18" viewBox="0 0 18 18" fill="none" xmlns="http://www.w3.org/2000/svg">
	<path d="M9.32473 3.15332L5.38306 5.88399V5.99543C5.35791 5.99221 5.33228 5.99056 5.30625 5.99056H2.93181C2.60056 5.99056 2.33203 6.25909 2.33203 6.59034V11.4098C2.33203 11.7411 2.60056 12.0096 2.93181 12.0096H5.30625C5.33228 12.0096 5.35791 12.0079 5.38306 12.0047V12.1859L9.32473 14.8468V3.15332Z" fill="#BDC1C6"/>
	<path d="M15.6684 10.5201L14.8335 11.355L13.1635 9.6851L11.4936 11.355L10.6587 10.5201L12.3286 8.85013L10.6587 7.18021L11.4936 6.34525L13.1635 8.01517L14.8335 6.34525L15.6684 7.18021L13.9985 8.85013L15.6684 10.5201Z" fill="#BDC1C6"/>
</svg>
