<svg width="150" height="151" viewBox="0 0 150 151" fill="none" xmlns="http://www.w3.org/2000/svg">
	<path d="M2.5 15C2.5 8.37258 7.87258 3 14.5 3H135.5C142.127 3 147.5 8.37258 147.5 15V136C147.5 142.627 142.127 148 135.5 148H14.5C7.87258 148 2.5 142.627 2.5 136V15Z" fill="url(#paint0_linear_677_253454)" fill-opacity="0.24"/>
	<path d="M14.5 15H18.1667V18.6667H14.5V15ZM18.1667 15H21.8333V18.6667H18.1667V15ZM21.8333 15H25.5V18.6667H21.8333V15ZM25.5 15H29.1666V18.6667H25.5V15ZM29.1666 15H32.8333V18.6667H29.1666V15ZM32.8333 15H36.5V18.6667H32.8333V15ZM36.5 15H40.1666V18.6667H36.5V15ZM43.8333 15H47.5V18.6667H43.8333V15ZM51.1666 15H54.8333V18.6667H51.1666V15ZM69.4999 15H73.1666V18.6667H69.4999V15ZM87.8332 15H91.4999V18.6667H87.8332V15ZM91.4999 15H95.1666V18.6667H91.4999V15ZM95.1666 15H98.8332V18.6667H95.1666V15ZM109.833 15H113.5V18.6667H109.833V15ZM113.5 15H117.167V18.6667H113.5V15ZM117.167 15H120.833V18.6667H117.167V15ZM120.833 15H124.5V18.6667H120.833V15ZM124.5 15H128.167V18.6667H124.5V15ZM128.167 15H131.833V18.6667H128.167V15ZM131.833 15H135.5V18.6667H131.833V15ZM14.5 18.6667H18.1667V22.3333H14.5V18.6667ZM36.5 18.6667H40.1666V22.3333H36.5V18.6667ZM51.1666 18.6667H54.8333V22.3333H51.1666V18.6667ZM54.8333 18.6667H58.4999V22.3333H54.8333V18.6667ZM62.1666 18.6667H65.8333V22.3333H62.1666V18.6667ZM73.1666 18.6667H76.8332V22.3333H73.1666V18.6667ZM80.4999 18.6667H84.1666V22.3333H80.4999V18.6667ZM84.1666 18.6667H87.8332V22.3333H84.1666V18.6667ZM91.4999 18.6667H95.1666V22.3333H91.4999V18.6667ZM95.1666 18.6667H98.8332V22.3333H95.1666V18.6667ZM98.8332 18.6667H102.5V22.3333H98.8332V18.6667ZM102.5 18.6667H106.167V22.3333H102.5V18.6667ZM109.833 18.6667H113.5V22.3333H109.833V18.6667ZM131.833 18.6667H135.5V22.3333H131.833V18.6667ZM14.5 22.3333H18.1667V26H14.5V22.3333ZM21.8333 22.3333H25.5V26H21.8333V22.3333ZM25.5 22.3333H29.1666V26H25.5V22.3333ZM29.1666 22.3333H32.8333V26H29.1666V22.3333ZM36.5 22.3333H40.1666V26H36.5V22.3333ZM47.5 22.3333H51.1666V26H47.5V22.3333ZM51.1666 22.3333H54.8333V26H51.1666V22.3333ZM54.8333 22.3333H58.4999V26H54.8333V22.3333ZM58.4999 22.3333H62.1666V26H58.4999V22.3333ZM65.8333 22.3333H69.4999V26H65.8333V22.3333ZM69.4999 22.3333H73.1666V26H69.4999V22.3333ZM73.1666 22.3333H76.8332V26H73.1666V22.3333ZM84.1666 22.3333H87.8332V26H84.1666V22.3333ZM91.4999 22.3333H95.1666V26H91.4999V22.3333ZM102.5 22.3333H106.167V26H102.5V22.3333ZM109.833 22.3333H113.5V26H109.833V22.3333ZM117.167 22.3333H120.833V26H117.167V22.3333ZM120.833 22.3333H124.5V26H120.833V22.3333ZM124.5 22.3333H128.167V26H124.5V22.3333ZM131.833 22.3333H135.5V26H131.833V22.3333ZM14.5 26H18.1667V29.6666H14.5V26ZM21.8333 26H25.5V29.6666H21.8333V26ZM25.5 26H29.1666V29.6666H25.5V26ZM29.1666 26H32.8333V29.6666H29.1666V26ZM36.5 26H40.1666V29.6666H36.5V26ZM47.5 26H51.1666V29.6666H47.5V26ZM54.8333 26H58.4999V29.6666H54.8333V26ZM58.4999 26H62.1666V29.6666H58.4999V26ZM65.8333 26H69.4999V29.6666H65.8333V26ZM69.4999 26H73.1666V29.6666H69.4999V26ZM73.1666 26H76.8332V29.6666H73.1666V26ZM80.4999 26H84.1666V29.6666H80.4999V26ZM109.833 26H113.5V29.6666H109.833V26ZM117.167 26H120.833V29.6666H117.167V26ZM120.833 26H124.5V29.6666H120.833V26ZM124.5 26H128.167V29.6666H124.5V26ZM131.833 26H135.5V29.6666H131.833V26ZM14.5 29.6666H18.1667V33.3333H14.5V29.6666ZM21.8333 29.6666H25.5V33.3333H21.8333V29.6666ZM25.5 29.6666H29.1666V33.3333H25.5V29.6666ZM29.1666 29.6666H32.8333V33.3333H29.1666V29.6666ZM36.5 29.6666H40.1666V33.3333H36.5V29.6666ZM43.8333 29.6666H47.5V33.3333H43.8333V29.6666ZM51.1666 29.6666H54.8333V33.3333H51.1666V29.6666ZM54.8333 29.6666H58.4999V33.3333H54.8333V29.6666ZM58.4999 29.6666H62.1666V33.3333H58.4999V29.6666ZM65.8333 29.6666H69.4999V33.3333H65.8333V29.6666ZM69.4999 29.6666H73.1666V33.3333H69.4999V29.6666ZM73.1666 29.6666H76.8332V33.3333H73.1666V29.6666ZM87.8332 29.6666H91.4999V33.3333H87.8332V29.6666ZM91.4999 29.6666H95.1666V33.3333H91.4999V29.6666ZM98.8332 29.6666H102.5V33.3333H98.8332V29.6666ZM102.5 29.6666H106.167V33.3333H102.5V29.6666ZM109.833 29.6666H113.5V33.3333H109.833V29.6666ZM117.167 29.6666H120.833V33.3333H117.167V29.6666ZM120.833 29.6666H124.5V33.3333H120.833V29.6666ZM124.5 29.6666H128.167V33.3333H124.5V29.6666ZM131.833 29.6666H135.5V33.3333H131.833V29.6666ZM14.5 33.3333H18.1667V37H14.5V33.3333ZM36.5 33.3333H40.1666V37H36.5V33.3333ZM43.8333 33.3333H47.5V37H43.8333V33.3333ZM47.5 33.3333H51.1666V37H47.5V33.3333ZM54.8333 33.3333H58.4999V37H54.8333V33.3333ZM58.4999 33.3333H62.1666V37H58.4999V33.3333ZM65.8333 33.3333H69.4999V37H65.8333V33.3333ZM80.4999 33.3333H84.1666V37H80.4999V33.3333ZM84.1666 33.3333H87.8332V37H84.1666V33.3333ZM91.4999 33.3333H95.1666V37H91.4999V33.3333ZM98.8332 33.3333H102.5V37H98.8332V33.3333ZM102.5 33.3333H106.167V37H102.5V33.3333ZM109.833 33.3333H113.5V37H109.833V33.3333ZM131.833 33.3333H135.5V37H131.833V33.3333ZM14.5 37H18.1667V40.6666H14.5V37ZM18.1667 37H21.8333V40.6666H18.1667V37ZM21.8333 37H25.5V40.6666H21.8333V37ZM25.5 37H29.1666V40.6666H25.5V37ZM29.1666 37H32.8333V40.6666H29.1666V37ZM32.8333 37H36.5V40.6666H32.8333V37ZM36.5 37H40.1666V40.6666H36.5V37ZM43.8333 37H47.5V40.6666H43.8333V37ZM51.1666 37H54.8333V40.6666H51.1666V37ZM58.4999 37H62.1666V40.6666H58.4999V37ZM65.8333 37H69.4999V40.6666H65.8333V37ZM73.1666 37H76.8332V40.6666H73.1666V37ZM80.4999 37H84.1666V40.6666H80.4999V37ZM87.8332 37H91.4999V40.6666H87.8332V37ZM95.1666 37H98.8332V40.6666H95.1666V37ZM102.5 37H106.167V40.6666H102.5V37ZM109.833 37H113.5V40.6666H109.833V37ZM113.5 37H117.167V40.6666H113.5V37ZM117.167 37H120.833V40.6666H117.167V37ZM120.833 37H124.5V40.6666H120.833V37ZM124.5 37H128.167V40.6666H124.5V37ZM128.167 37H131.833V40.6666H128.167V37ZM131.833 37H135.5V40.6666H131.833V37ZM47.5 40.6666H51.1666V44.3333H47.5V40.6666ZM69.4999 40.6666H73.1666V44.3333H69.4999V40.6666ZM73.1666 40.6666H76.8332V44.3333H73.1666V40.6666ZM76.8332 40.6666H80.4999V44.3333H76.8332V40.6666ZM80.4999 40.6666H84.1666V44.3333H80.4999V40.6666ZM84.1666 40.6666H87.8332V44.3333H84.1666V40.6666ZM87.8332 40.6666H91.4999V44.3333H87.8332V40.6666ZM95.1666 40.6666H98.8332V44.3333H95.1666V40.6666ZM102.5 40.6666H106.167V44.3333H102.5V40.6666ZM18.1667 44.3333H21.8333V48H18.1667V44.3333ZM21.8333 44.3333H25.5V48H21.8333V44.3333ZM25.5 44.3333H29.1666V48H25.5V44.3333ZM29.1666 44.3333H32.8333V48H29.1666V44.3333ZM32.8333 44.3333H36.5V48H32.8333V44.3333ZM36.5 44.3333H40.1666V48H36.5V44.3333ZM40.1666 44.3333H43.8333V48H40.1666V44.3333ZM47.5 44.3333H51.1666V48H47.5V44.3333ZM58.4999 44.3333H62.1666V48H58.4999V44.3333ZM62.1666 44.3333H65.8333V48H62.1666V44.3333ZM76.8332 44.3333H80.4999V48H76.8332V44.3333ZM80.4999 44.3333H84.1666V48H80.4999V44.3333ZM84.1666 44.3333H87.8332V48H84.1666V44.3333ZM91.4999 44.3333H95.1666V48H91.4999V44.3333ZM102.5 44.3333H106.167V48H102.5V44.3333ZM113.5 44.3333H117.167V48H113.5V44.3333ZM117.167 44.3333H120.833V48H117.167V44.3333ZM131.833 44.3333H135.5V48H131.833V44.3333ZM14.5 48H18.1667V51.6666H14.5V48ZM29.1666 48H32.8333V51.6666H29.1666V48ZM51.1666 48H54.8333V51.6666H51.1666V48ZM54.8333 48H58.4999V51.6666H54.8333V48ZM73.1666 48H76.8332V51.6666H73.1666V48ZM76.8332 48H80.4999V51.6666H76.8332V48ZM91.4999 48H95.1666V51.6666H91.4999V48ZM98.8332 48H102.5V51.6666H98.8332V48ZM102.5 48H106.167V51.6666H102.5V48ZM109.833 48H113.5V51.6666H109.833V48ZM113.5 48H117.167V51.6666H113.5V48ZM124.5 48H128.167V51.6666H124.5V48ZM128.167 48H131.833V51.6666H128.167V48ZM18.1667 51.6666H21.8333V55.3333H18.1667V51.6666ZM21.8333 51.6666H25.5V55.3333H21.8333V51.6666ZM29.1666 51.6666H32.8333V55.3333H29.1666V51.6666ZM32.8333 51.6666H36.5V55.3333H32.8333V51.6666ZM36.5 51.6666H40.1666V55.3333H36.5V51.6666ZM43.8333 51.6666H47.5V55.3333H43.8333V51.6666ZM58.4999 51.6666H62.1666V55.3333H58.4999V51.6666ZM62.1666 51.6666H65.8333V55.3333H62.1666V51.6666ZM65.8333 51.6666H69.4999V55.3333H65.8333V51.6666ZM76.8332 51.6666H80.4999V55.3333H76.8332V51.6666ZM84.1666 51.6666H87.8332V55.3333H84.1666V51.6666ZM87.8332 51.6666H91.4999V55.3333H87.8332V51.6666ZM91.4999 51.6666H95.1666V55.3333H91.4999V51.6666ZM106.167 51.6666H109.833V55.3333H106.167V51.6666ZM109.833 51.6666H113.5V55.3333H109.833V51.6666ZM120.833 51.6666H124.5V55.3333H120.833V51.6666ZM128.167 51.6666H131.833V55.3333H128.167V51.6666ZM131.833 51.6666H135.5V55.3333H131.833V51.6666ZM14.5 55.3333H18.1667V58.9999H14.5V55.3333ZM21.8333 55.3333H25.5V58.9999H21.8333V55.3333ZM29.1666 55.3333H32.8333V58.9999H29.1666V55.3333ZM32.8333 55.3333H36.5V58.9999H32.8333V55.3333ZM40.1666 55.3333H43.8333V58.9999H40.1666V55.3333ZM62.1666 55.3333H65.8333V58.9999H62.1666V55.3333ZM65.8333 55.3333H69.4999V58.9999H65.8333V55.3333ZM69.4999 55.3333H73.1666V58.9999H69.4999V55.3333ZM73.1666 55.3333H76.8332V58.9999H73.1666V55.3333ZM76.8332 55.3333H80.4999V58.9999H76.8332V55.3333ZM80.4999 55.3333H84.1666V58.9999H80.4999V55.3333ZM91.4999 55.3333H95.1666V58.9999H91.4999V55.3333ZM98.8332 55.3333H102.5V58.9999H98.8332V55.3333ZM102.5 55.3333H106.167V58.9999H102.5V55.3333ZM106.167 55.3333H109.833V58.9999H106.167V55.3333ZM113.5 55.3333H117.167V58.9999H113.5V55.3333ZM120.833 55.3333H124.5V58.9999H120.833V55.3333ZM128.167 55.3333H131.833V58.9999H128.167V55.3333ZM131.833 55.3333H135.5V58.9999H131.833V55.3333ZM25.5 58.9999H29.1666V62.6666H25.5V58.9999ZM36.5 58.9999H40.1666V62.6666H36.5V58.9999ZM43.8333 58.9999H47.5V62.6666H43.8333V58.9999ZM47.5 58.9999H51.1666V62.6666H47.5V58.9999ZM51.1666 58.9999H54.8333V62.6666H51.1666V58.9999ZM54.8333 58.9999H58.4999V62.6666H54.8333V58.9999ZM65.8333 58.9999H69.4999V62.6666H65.8333V58.9999ZM87.8332 58.9999H91.4999V62.6666H87.8332V58.9999ZM98.8332 58.9999H102.5V62.6666H98.8332V58.9999ZM106.167 58.9999H109.833V62.6666H106.167V58.9999ZM109.833 58.9999H113.5V62.6666H109.833V58.9999ZM113.5 58.9999H117.167V62.6666H113.5V58.9999ZM117.167 58.9999H120.833V62.6666H117.167V58.9999ZM120.833 58.9999H124.5V62.6666H120.833V58.9999ZM124.5 58.9999H128.167V62.6666H124.5V58.9999ZM131.833 58.9999H135.5V62.6666H131.833V58.9999ZM21.8333 62.6666H25.5V66.3333H21.8333V62.6666ZM25.5 62.6666H29.1666V66.3333H25.5V62.6666ZM47.5 62.6666H51.1666V66.3333H47.5V62.6666ZM54.8333 62.6666H58.4999V66.3333H54.8333V62.6666ZM62.1666 62.6666H65.8333V66.3333H62.1666V62.6666ZM69.4999 62.6666H73.1666V66.3333H69.4999V62.6666ZM76.8332 62.6666H80.4999V66.3333H76.8332V62.6666ZM80.4999 62.6666H84.1666V66.3333H80.4999V62.6666ZM91.4999 62.6666H95.1666V66.3333H91.4999V62.6666ZM106.167 62.6666H109.833V66.3333H106.167V62.6666ZM113.5 62.6666H117.167V66.3333H113.5V62.6666ZM124.5 62.6666H128.167V66.3333H124.5V62.6666ZM131.833 62.6666H135.5V66.3333H131.833V62.6666ZM14.5 66.3333H18.1667V69.9999H14.5V66.3333ZM25.5 66.3333H29.1666V69.9999H25.5V66.3333ZM32.8333 66.3333H36.5V69.9999H32.8333V66.3333ZM36.5 66.3333H40.1666V69.9999H36.5V66.3333ZM40.1666 66.3333H43.8333V69.9999H40.1666V66.3333ZM43.8333 66.3333H47.5V69.9999H43.8333V66.3333ZM47.5 66.3333H51.1666V69.9999H47.5V66.3333ZM51.1666 66.3333H54.8333V69.9999H51.1666V66.3333ZM58.4999 66.3333H62.1666V69.9999H58.4999V66.3333ZM62.1666 66.3333H65.8333V69.9999H62.1666V66.3333ZM65.8333 66.3333H69.4999V69.9999H65.8333V66.3333ZM69.4999 66.3333H73.1666V69.9999H69.4999V66.3333ZM76.8332 66.3333H80.4999V69.9999H76.8332V66.3333ZM87.8332 66.3333H91.4999V69.9999H87.8332V66.3333ZM91.4999 66.3333H95.1666V69.9999H91.4999V66.3333ZM98.8332 66.3333H102.5V69.9999H98.8332V66.3333ZM102.5 66.3333H106.167V69.9999H102.5V66.3333ZM113.5 66.3333H117.167V69.9999H113.5V66.3333ZM117.167 66.3333H120.833V69.9999H117.167V66.3333ZM124.5 66.3333H128.167V69.9999H124.5V66.3333ZM131.833 66.3333H135.5V69.9999H131.833V66.3333ZM25.5 69.9999H29.1666V73.6666H25.5V69.9999ZM29.1666 69.9999H32.8333V73.6666H29.1666V69.9999ZM51.1666 69.9999H54.8333V73.6666H51.1666V69.9999ZM54.8333 69.9999H58.4999V73.6666H54.8333V69.9999ZM62.1666 69.9999H65.8333V73.6666H62.1666V69.9999ZM73.1666 69.9999H76.8332V73.6666H73.1666V69.9999ZM80.4999 69.9999H84.1666V73.6666H80.4999V69.9999ZM95.1666 69.9999H98.8332V73.6666H95.1666V69.9999ZM98.8332 69.9999H102.5V73.6666H98.8332V69.9999ZM113.5 69.9999H117.167V73.6666H113.5V69.9999ZM18.1667 73.6666H21.8333V77.3332H18.1667V73.6666ZM21.8333 73.6666H25.5V77.3332H21.8333V73.6666ZM29.1666 73.6666H32.8333V77.3332H29.1666V73.6666ZM36.5 73.6666H40.1666V77.3332H36.5V73.6666ZM43.8333 73.6666H47.5V77.3332H43.8333V73.6666ZM47.5 73.6666H51.1666V77.3332H47.5V73.6666ZM51.1666 73.6666H54.8333V77.3332H51.1666V73.6666ZM54.8333 73.6666H58.4999V77.3332H54.8333V73.6666ZM58.4999 73.6666H62.1666V77.3332H58.4999V73.6666ZM62.1666 73.6666H65.8333V77.3332H62.1666V73.6666ZM65.8333 73.6666H69.4999V77.3332H65.8333V73.6666ZM73.1666 73.6666H76.8332V77.3332H73.1666V73.6666ZM80.4999 73.6666H84.1666V77.3332H80.4999V73.6666ZM87.8332 73.6666H91.4999V77.3332H87.8332V73.6666ZM91.4999 73.6666H95.1666V77.3332H91.4999V73.6666ZM95.1666 73.6666H98.8332V77.3332H95.1666V73.6666ZM98.8332 73.6666H102.5V77.3332H98.8332V73.6666ZM102.5 73.6666H106.167V77.3332H102.5V73.6666ZM106.167 73.6666H109.833V77.3332H106.167V73.6666ZM109.833 73.6666H113.5V77.3332H109.833V73.6666ZM113.5 73.6666H117.167V77.3332H113.5V73.6666ZM117.167 73.6666H120.833V77.3332H117.167V73.6666ZM120.833 73.6666H124.5V77.3332H120.833V73.6666ZM14.5 77.3332H18.1667V80.9999H14.5V77.3332ZM18.1667 77.3332H21.8333V80.9999H18.1667V77.3332ZM21.8333 77.3332H25.5V80.9999H21.8333V77.3332ZM25.5 77.3332H29.1666V80.9999H25.5V77.3332ZM40.1666 77.3332H43.8333V80.9999H40.1666V77.3332ZM51.1666 77.3332H54.8333V80.9999H51.1666V77.3332ZM54.8333 77.3332H58.4999V80.9999H54.8333V77.3332ZM62.1666 77.3332H65.8333V80.9999H62.1666V77.3332ZM65.8333 77.3332H69.4999V80.9999H65.8333V77.3332ZM76.8332 77.3332H80.4999V80.9999H76.8332V77.3332ZM87.8332 77.3332H91.4999V80.9999H87.8332V77.3332ZM95.1666 77.3332H98.8332V80.9999H95.1666V77.3332ZM102.5 77.3332H106.167V80.9999H102.5V77.3332ZM106.167 77.3332H109.833V80.9999H106.167V77.3332ZM113.5 77.3332H117.167V80.9999H113.5V77.3332ZM124.5 77.3332H128.167V80.9999H124.5V77.3332ZM128.167 77.3332H131.833V80.9999H128.167V77.3332ZM131.833 77.3332H135.5V80.9999H131.833V77.3332ZM14.5 80.9999H18.1667V84.6666H14.5V80.9999ZM21.8333 80.9999H25.5V84.6666H21.8333V80.9999ZM36.5 80.9999H40.1666V84.6666H36.5V80.9999ZM43.8333 80.9999H47.5V84.6666H43.8333V80.9999ZM47.5 80.9999H51.1666V84.6666H47.5V80.9999ZM54.8333 80.9999H58.4999V84.6666H54.8333V80.9999ZM65.8333 80.9999H69.4999V84.6666H65.8333V80.9999ZM76.8332 80.9999H80.4999V84.6666H76.8332V80.9999ZM80.4999 80.9999H84.1666V84.6666H80.4999V80.9999ZM84.1666 80.9999H87.8332V84.6666H84.1666V80.9999ZM91.4999 80.9999H95.1666V84.6666H91.4999V80.9999ZM98.8332 80.9999H102.5V84.6666H98.8332V80.9999ZM113.5 80.9999H117.167V84.6666H113.5V80.9999ZM120.833 80.9999H124.5V84.6666H120.833V80.9999ZM124.5 80.9999H128.167V84.6666H124.5V80.9999ZM131.833 80.9999H135.5V84.6666H131.833V80.9999ZM21.8333 84.6666H25.5V88.3332H21.8333V84.6666ZM32.8333 84.6666H36.5V88.3332H32.8333V84.6666ZM40.1666 84.6666H43.8333V88.3332H40.1666V84.6666ZM54.8333 84.6666H58.4999V88.3332H54.8333V84.6666ZM58.4999 84.6666H62.1666V88.3332H58.4999V84.6666ZM62.1666 84.6666H65.8333V88.3332H62.1666V84.6666ZM65.8333 84.6666H69.4999V88.3332H65.8333V84.6666ZM80.4999 84.6666H84.1666V88.3332H80.4999V84.6666ZM91.4999 84.6666H95.1666V88.3332H91.4999V84.6666ZM95.1666 84.6666H98.8332V88.3332H95.1666V84.6666ZM102.5 84.6666H106.167V88.3332H102.5V84.6666ZM113.5 84.6666H117.167V88.3332H113.5V84.6666ZM21.8333 88.3332H25.5V91.9999H21.8333V88.3332ZM25.5 88.3332H29.1666V91.9999H25.5V88.3332ZM29.1666 88.3332H32.8333V91.9999H29.1666V88.3332ZM36.5 88.3332H40.1666V91.9999H36.5V88.3332ZM47.5 88.3332H51.1666V91.9999H47.5V88.3332ZM54.8333 88.3332H58.4999V91.9999H54.8333V88.3332ZM62.1666 88.3332H65.8333V91.9999H62.1666V88.3332ZM65.8333 88.3332H69.4999V91.9999H65.8333V88.3332ZM84.1666 88.3332H87.8332V91.9999H84.1666V88.3332ZM91.4999 88.3332H95.1666V91.9999H91.4999V88.3332ZM109.833 88.3332H113.5V91.9999H109.833V88.3332ZM124.5 88.3332H128.167V91.9999H124.5V88.3332ZM14.5 91.9999H18.1667V95.6666H14.5V91.9999ZM29.1666 91.9999H32.8333V95.6666H29.1666V91.9999ZM40.1666 91.9999H43.8333V95.6666H40.1666V91.9999ZM43.8333 91.9999H47.5V95.6666H43.8333V91.9999ZM51.1666 91.9999H54.8333V95.6666H51.1666V91.9999ZM54.8333 91.9999H58.4999V95.6666H54.8333V91.9999ZM58.4999 91.9999H62.1666V95.6666H58.4999V91.9999ZM69.4999 91.9999H73.1666V95.6666H69.4999V91.9999ZM73.1666 91.9999H76.8332V95.6666H73.1666V91.9999ZM76.8332 91.9999H80.4999V95.6666H76.8332V91.9999ZM80.4999 91.9999H84.1666V95.6666H80.4999V91.9999ZM87.8332 91.9999H91.4999V95.6666H87.8332V91.9999ZM91.4999 91.9999H95.1666V95.6666H91.4999V91.9999ZM98.8332 91.9999H102.5V95.6666H98.8332V91.9999ZM102.5 91.9999H106.167V95.6666H102.5V91.9999ZM106.167 91.9999H109.833V95.6666H106.167V91.9999ZM109.833 91.9999H113.5V95.6666H109.833V91.9999ZM128.167 91.9999H131.833V95.6666H128.167V91.9999ZM14.5 95.6666H18.1667V99.3332H14.5V95.6666ZM29.1666 95.6666H32.8333V99.3332H29.1666V95.6666ZM32.8333 95.6666H36.5V99.3332H32.8333V95.6666ZM36.5 95.6666H40.1666V99.3332H36.5V95.6666ZM40.1666 95.6666H43.8333V99.3332H40.1666V95.6666ZM51.1666 95.6666H54.8333V99.3332H51.1666V95.6666ZM62.1666 95.6666H65.8333V99.3332H62.1666V95.6666ZM69.4999 95.6666H73.1666V99.3332H69.4999V95.6666ZM73.1666 95.6666H76.8332V99.3332H73.1666V95.6666ZM76.8332 95.6666H80.4999V99.3332H76.8332V95.6666ZM84.1666 95.6666H87.8332V99.3332H84.1666V95.6666ZM91.4999 95.6666H95.1666V99.3332H91.4999V95.6666ZM98.8332 95.6666H102.5V99.3332H98.8332V95.6666ZM102.5 95.6666H106.167V99.3332H102.5V95.6666ZM124.5 95.6666H128.167V99.3332H124.5V95.6666ZM128.167 95.6666H131.833V99.3332H128.167V95.6666ZM131.833 95.6666H135.5V99.3332H131.833V95.6666ZM14.5 99.3332H18.1667V103H14.5V99.3332ZM25.5 99.3332H29.1666V103H25.5V99.3332ZM29.1666 99.3332H32.8333V103H29.1666V99.3332ZM32.8333 99.3332H36.5V103H32.8333V99.3332ZM40.1666 99.3332H43.8333V103H40.1666V99.3332ZM51.1666 99.3332H54.8333V103H51.1666V99.3332ZM58.4999 99.3332H62.1666V103H58.4999V99.3332ZM65.8333 99.3332H69.4999V103H65.8333V99.3332ZM69.4999 99.3332H73.1666V103H69.4999V99.3332ZM76.8332 99.3332H80.4999V103H76.8332V99.3332ZM84.1666 99.3332H87.8332V103H84.1666V99.3332ZM87.8332 99.3332H91.4999V103H87.8332V99.3332ZM95.1666 99.3332H98.8332V103H95.1666V99.3332ZM102.5 99.3332H106.167V103H102.5V99.3332ZM113.5 99.3332H117.167V103H113.5V99.3332ZM124.5 99.3332H128.167V103H124.5V99.3332ZM128.167 99.3332H131.833V103H128.167V99.3332ZM131.833 99.3332H135.5V103H131.833V99.3332ZM14.5 103H18.1667V106.667H14.5V103ZM32.8333 103H36.5V106.667H32.8333V103ZM36.5 103H40.1666V106.667H36.5V103ZM58.4999 103H62.1666V106.667H58.4999V103ZM62.1666 103H65.8333V106.667H62.1666V103ZM73.1666 103H76.8332V106.667H73.1666V103ZM80.4999 103H84.1666V106.667H80.4999V103ZM84.1666 103H87.8332V106.667H84.1666V103ZM87.8332 103H91.4999V106.667H87.8332V103ZM91.4999 103H95.1666V106.667H91.4999V103ZM102.5 103H106.167V106.667H102.5V103ZM106.167 103H109.833V106.667H106.167V103ZM109.833 103H113.5V106.667H109.833V103ZM113.5 103H117.167V106.667H113.5V103ZM117.167 103H120.833V106.667H117.167V103ZM128.167 103H131.833V106.667H128.167V103ZM43.8333 106.667H47.5V110.333H43.8333V106.667ZM47.5 106.667H51.1666V110.333H47.5V106.667ZM54.8333 106.667H58.4999V110.333H54.8333V106.667ZM62.1666 106.667H65.8333V110.333H62.1666V106.667ZM65.8333 106.667H69.4999V110.333H65.8333V106.667ZM69.4999 106.667H73.1666V110.333H69.4999V106.667ZM73.1666 106.667H76.8332V110.333H73.1666V106.667ZM76.8332 106.667H80.4999V110.333H76.8332V106.667ZM80.4999 106.667H84.1666V110.333H80.4999V106.667ZM84.1666 106.667H87.8332V110.333H84.1666V106.667ZM98.8332 106.667H102.5V110.333H98.8332V106.667ZM102.5 106.667H106.167V110.333H102.5V106.667ZM117.167 106.667H120.833V110.333H117.167V106.667ZM124.5 106.667H128.167V110.333H124.5V106.667ZM128.167 106.667H131.833V110.333H128.167V106.667ZM14.5 110.333H18.1667V114H14.5V110.333ZM18.1667 110.333H21.8333V114H18.1667V110.333ZM21.8333 110.333H25.5V114H21.8333V110.333ZM25.5 110.333H29.1666V114H25.5V110.333ZM29.1666 110.333H32.8333V114H29.1666V110.333ZM32.8333 110.333H36.5V114H32.8333V110.333ZM36.5 110.333H40.1666V114H36.5V110.333ZM43.8333 110.333H47.5V114H43.8333V110.333ZM51.1666 110.333H54.8333V114H51.1666V110.333ZM58.4999 110.333H62.1666V114H58.4999V110.333ZM69.4999 110.333H73.1666V114H69.4999V110.333ZM76.8332 110.333H80.4999V114H76.8332V110.333ZM84.1666 110.333H87.8332V114H84.1666V110.333ZM95.1666 110.333H98.8332V114H95.1666V110.333ZM102.5 110.333H106.167V114H102.5V110.333ZM109.833 110.333H113.5V114H109.833V110.333ZM117.167 110.333H120.833V114H117.167V110.333ZM124.5 110.333H128.167V114H124.5V110.333ZM128.167 110.333H131.833V114H128.167V110.333ZM131.833 110.333H135.5V114H131.833V110.333ZM14.5 114H18.1667V117.667H14.5V114ZM36.5 114H40.1666V117.667H36.5V114ZM43.8333 114H47.5V117.667H43.8333V114ZM47.5 114H51.1666V117.667H47.5V114ZM51.1666 114H54.8333V117.667H51.1666V114ZM54.8333 114H58.4999V117.667H54.8333V114ZM62.1666 114H65.8333V117.667H62.1666V114ZM73.1666 114H76.8332V117.667H73.1666V114ZM76.8332 114H80.4999V117.667H76.8332V114ZM98.8332 114H102.5V117.667H98.8332V114ZM102.5 114H106.167V117.667H102.5V114ZM117.167 114H120.833V117.667H117.167V114ZM120.833 114H124.5V117.667H120.833V114ZM14.5 117.667H18.1667V121.333H14.5V117.667ZM21.8333 117.667H25.5V121.333H21.8333V117.667ZM25.5 117.667H29.1666V121.333H25.5V117.667ZM29.1666 117.667H32.8333V121.333H29.1666V117.667ZM36.5 117.667H40.1666V121.333H36.5V117.667ZM43.8333 117.667H47.5V121.333H43.8333V117.667ZM47.5 117.667H51.1666V121.333H47.5V117.667ZM51.1666 117.667H54.8333V121.333H51.1666V117.667ZM62.1666 117.667H65.8333V121.333H62.1666V117.667ZM69.4999 117.667H73.1666V121.333H69.4999V117.667ZM80.4999 117.667H84.1666V121.333H80.4999V117.667ZM87.8332 117.667H91.4999V121.333H87.8332V117.667ZM91.4999 117.667H95.1666V121.333H91.4999V117.667ZM95.1666 117.667H98.8332V121.333H95.1666V117.667ZM98.8332 117.667H102.5V121.333H98.8332V117.667ZM102.5 117.667H106.167V121.333H102.5V117.667ZM106.167 117.667H109.833V121.333H106.167V117.667ZM109.833 117.667H113.5V121.333H109.833V117.667ZM113.5 117.667H117.167V121.333H113.5V117.667ZM117.167 117.667H120.833V121.333H117.167V117.667ZM120.833 117.667H124.5V121.333H120.833V117.667ZM124.5 117.667H128.167V121.333H124.5V117.667ZM14.5 121.333H18.1667V125H14.5V121.333ZM21.8333 121.333H25.5V125H21.8333V121.333ZM25.5 121.333H29.1666V125H25.5V121.333ZM29.1666 121.333H32.8333V125H29.1666V121.333ZM36.5 121.333H40.1666V125H36.5V121.333ZM43.8333 121.333H47.5V125H43.8333V121.333ZM65.8333 121.333H69.4999V125H65.8333V121.333ZM73.1666 121.333H76.8332V125H73.1666V121.333ZM80.4999 121.333H84.1666V125H80.4999V121.333ZM91.4999 121.333H95.1666V125H91.4999V121.333ZM109.833 121.333H113.5V125H109.833V121.333ZM117.167 121.333H120.833V125H117.167V121.333ZM124.5 121.333H128.167V125H124.5V121.333ZM131.833 121.333H135.5V125H131.833V121.333ZM14.5 125H18.1667V128.667H14.5V125ZM21.8333 125H25.5V128.667H21.8333V125ZM25.5 125H29.1666V128.667H25.5V125ZM29.1666 125H32.8333V128.667H29.1666V125ZM36.5 125H40.1666V128.667H36.5V125ZM43.8333 125H47.5V128.667H43.8333V125ZM51.1666 125H54.8333V128.667H51.1666V125ZM58.4999 125H62.1666V128.667H58.4999V125ZM62.1666 125H65.8333V128.667H62.1666V125ZM65.8333 125H69.4999V128.667H65.8333V125ZM69.4999 125H73.1666V128.667H69.4999V125ZM73.1666 125H76.8332V128.667H73.1666V125ZM76.8332 125H80.4999V128.667H76.8332V125ZM80.4999 125H84.1666V128.667H80.4999V125ZM87.8332 125H91.4999V128.667H87.8332V125ZM95.1666 125H98.8332V128.667H95.1666V125ZM102.5 125H106.167V128.667H102.5V125ZM106.167 125H109.833V128.667H106.167V125ZM113.5 125H117.167V128.667H113.5V125ZM117.167 125H120.833V128.667H117.167V125ZM124.5 125H128.167V128.667H124.5V125ZM14.5 128.667H18.1667V132.333H14.5V128.667ZM36.5 128.667H40.1666V132.333H36.5V128.667ZM43.8333 128.667H47.5V132.333H43.8333V128.667ZM58.4999 128.667H62.1666V132.333H58.4999V128.667ZM69.4999 128.667H73.1666V132.333H69.4999V128.667ZM76.8332 128.667H80.4999V132.333H76.8332V128.667ZM95.1666 128.667H98.8332V132.333H95.1666V128.667ZM98.8332 128.667H102.5V132.333H98.8332V128.667ZM102.5 128.667H106.167V132.333H102.5V128.667ZM109.833 128.667H113.5V132.333H109.833V128.667ZM113.5 128.667H117.167V132.333H113.5V128.667ZM120.833 128.667H124.5V132.333H120.833V128.667ZM124.5 128.667H128.167V132.333H124.5V128.667ZM14.5 132.333H18.1667V136H14.5V132.333ZM18.1667 132.333H21.8333V136H18.1667V132.333ZM21.8333 132.333H25.5V136H21.8333V132.333ZM25.5 132.333H29.1666V136H25.5V132.333ZM29.1666 132.333H32.8333V136H29.1666V132.333ZM32.8333 132.333H36.5V136H32.8333V132.333ZM36.5 132.333H40.1666V136H36.5V132.333ZM51.1666 132.333H54.8333V136H51.1666V132.333ZM54.8333 132.333H58.4999V136H54.8333V132.333ZM58.4999 132.333H62.1666V136H58.4999V132.333ZM62.1666 132.333H65.8333V136H62.1666V132.333ZM69.4999 132.333H73.1666V136H69.4999V132.333ZM76.8332 132.333H80.4999V136H76.8332V132.333ZM80.4999 132.333H84.1666V136H80.4999V132.333ZM87.8332 132.333H91.4999V136H87.8332V132.333ZM91.4999 132.333H95.1666V136H91.4999V132.333ZM95.1666 132.333H98.8332V136H95.1666V132.333ZM98.8332 132.333H102.5V136H98.8332V132.333ZM109.833 132.333H113.5V136H109.833V132.333ZM113.5 132.333H117.167V136H113.5V132.333ZM120.833 132.333H124.5V136H120.833V132.333ZM124.5 132.333H128.167V136H124.5V132.333ZM128.167 132.333H131.833V136H128.167V132.333Z" fill="url(#paint1_radial_677_253454)" fill-opacity="0.65"/>
	<path d="M147.5 128L147.5 136C147.5 142.627 142.127 148 135.5 148L127.5 148" stroke="white" stroke-width="5" stroke-linecap="round"/>
	<path d="M22.5 148L14.5 148C7.87258 148 2.5 142.627 2.5 136L2.5 128" stroke="white" stroke-width="5" stroke-linecap="round"/>
	<path d="M127.5 3H135.5C142.127 3 147.5 8.37258 147.5 15V23" stroke="white" stroke-width="5" stroke-linecap="round"/>
	<path d="M2.5 23L2.5 15C2.5 8.37258 7.87258 3 14.5 3H22.5" stroke="white" stroke-width="5" stroke-linecap="round"/>
	<path d="M70.166 59.666C71.6387 59.6661 72.832 60.8603 72.832 62.333V66C72.8319 67.4725 71.6386 68.6659 70.166 68.666H66.499C65.0264 68.6659 63.8322 67.4726 63.832 66V62.333C63.832 60.8603 65.0263 59.6661 66.499 59.666H70.166ZM85.499 65.834C86.1432 65.834 86.6658 66.3558 86.666 67V67.0117C86.6659 67.6559 86.1433 68.1777 85.499 68.1777C84.8548 68.1777 84.3322 67.6559 84.332 67.0117V67C84.3322 66.3559 84.8549 65.834 85.499 65.834ZM75.499 64.167C76.1434 64.167 76.666 64.6897 76.666 65.334V67C76.666 67.6443 76.1434 68.167 75.499 68.167C74.8547 68.1669 74.332 67.6443 74.332 67V65.334C74.332 64.6897 74.8547 64.1671 75.499 64.167ZM85.499 59.666C86.1433 59.6661 86.665 60.1887 86.665 60.833C86.665 61.4773 86.1433 61.9999 85.499 62H83.832C82.6356 62.0001 81.6652 62.9696 81.665 64.166V65.833C81.665 66.4773 81.1433 66.9999 80.499 67C79.8547 67 79.332 66.4773 79.332 65.833V64.166C79.3322 61.6809 81.3469 59.6661 83.832 59.666H85.499ZM66.499 62C66.315 62.0001 66.166 62.149 66.166 62.333V66C66.1662 66.1839 66.3151 66.3329 66.499 66.333H70.166C70.3499 66.3329 70.4988 66.1839 70.499 66V62.333C70.499 62.149 70.35 62.0001 70.166 62H66.499ZM75.499 60.2783C76.1432 60.2783 76.6658 60.8002 76.666 61.4443V61.4561C76.6659 62.1003 76.1433 62.623 75.499 62.623C74.8548 62.623 74.3321 62.1003 74.332 61.4561V61.4443C74.3323 60.8002 74.8549 60.2784 75.499 60.2783ZM85.499 55.834C86.1432 55.834 86.6658 56.3558 86.666 57V57.0117C86.6659 57.6559 86.1433 58.1777 85.499 58.1777C84.8548 58.1777 84.3322 57.6559 84.332 57.0117V57C84.3322 56.3559 84.8549 55.834 85.499 55.834ZM65.5098 55.834C66.154 55.834 66.6766 56.3558 66.6768 57C66.6768 57.6443 66.1541 58.167 65.5098 58.167H65.499C64.8547 58.1669 64.332 57.6443 64.332 57C64.3322 56.3559 64.8549 55.834 65.499 55.834H65.5098ZM75.499 50.834C76.1432 50.834 76.6658 51.3558 76.666 52V53.667C76.666 56.1522 74.6512 58.1669 72.166 58.167H70.499C69.8547 58.1669 69.332 57.6443 69.332 57C69.3322 56.3559 69.8549 55.834 70.499 55.834H72.166C73.3625 55.8339 74.332 54.8635 74.332 53.667V52C74.3322 51.3559 74.8549 50.834 75.499 50.834ZM81.332 55.834C81.9763 55.834 82.4988 56.3558 82.499 57C82.499 57.6443 81.9764 58.167 81.332 58.167H79.666C79.0217 58.167 78.499 57.6443 78.499 57C78.4992 56.3558 79.0218 55.834 79.666 55.834H81.332ZM70.166 45.334C71.6386 45.3341 72.8319 46.5275 72.832 48V51.667C72.832 53.1397 71.6387 54.3339 70.166 54.334H66.499C65.0263 54.3339 63.832 53.1397 63.832 51.667V48C63.8322 46.5274 65.0264 45.3341 66.499 45.334H70.166ZM84.499 45.334C85.9717 45.334 87.1658 46.5274 87.166 48V51.667C87.166 53.1398 85.9718 54.334 84.499 54.334H80.832C79.3595 54.3338 78.166 53.1396 78.166 51.667V48C78.1662 46.5275 79.3596 45.3342 80.832 45.334H84.499ZM66.499 47.667C66.3151 47.6671 66.1662 47.8161 66.166 48V51.667C66.166 51.851 66.315 51.9999 66.499 52H70.166C70.35 51.9999 70.499 51.851 70.499 51.667V48C70.4988 47.8161 70.3499 47.6671 70.166 47.667H66.499ZM80.832 47.667C80.6482 47.6672 80.4992 47.8162 80.499 48V51.667C80.499 51.8509 80.6481 51.9998 80.832 52H84.499C84.6831 52 84.832 51.8511 84.832 51.667V48C84.8319 47.8161 84.683 47.667 84.499 47.667H80.832ZM75.5098 45.834C76.154 45.834 76.6766 46.3558 76.6768 47C76.6768 47.6443 76.1541 48.167 75.5098 48.167H75.499C74.8547 48.1669 74.332 47.6443 74.332 47C74.3322 46.3559 74.8549 45.834 75.499 45.834H75.5098Z" fill="white"/>
	<defs>
		<linearGradient id="paint0_linear_677_253454" x1="75" y1="3" x2="75" y2="148" gradientUnits="userSpaceOnUse">
			<stop stop-color="white" stop-opacity="0.5"/>
			<stop offset="1" stop-color="white"/>
		</linearGradient>
		<radialGradient id="paint1_radial_677_253454" cx="0" cy="0" r="1" gradientUnits="userSpaceOnUse" gradientTransform="translate(74.9999 75.4999) rotate(89.623) scale(82.8485 170.215)">
			<stop stop-color="white" stop-opacity="0"/>
			<stop offset="0.623131" stop-color="white" stop-opacity="0.2"/>
			<stop offset="0.829702" stop-color="white" stop-opacity="0.4"/>
			<stop offset="1" stop-color="white"/>
		</radialGradient>
	</defs>
</svg>
