<svg width="20" height="20" viewBox="0 0 20 20" fill="none" xmlns="http://www.w3.org/2000/svg">
	<path fill-rule="evenodd" clip-rule="evenodd" d="M4.96159 5.01221C4.04111 5.01221 3.29492 5.7584 3.29492 6.67887V13.321C3.29492 14.2415 4.04111 14.9877 4.96159 14.9877H11.8792C12.7997 14.9877 13.5459 14.2415 13.5459 13.321V12.318L15.2772 13.5416C16.326 14.2827 17.7744 13.5328 17.7744 12.2485V7.74739C17.7744 6.46517 16.3299 5.71472 15.2808 6.45187L13.5459 7.67085V6.67887C13.5459 5.7584 12.7997 5.01221 11.8792 5.01221H4.96159ZM11.8792 6.17887H4.96159C4.68544 6.17887 4.46159 6.40273 4.46159 6.67887V13.321C4.46159 13.5972 4.68545 13.821 4.96159 13.821H11.8792C12.1554 13.821 12.3792 13.5972 12.3792 13.321V6.67887C12.3792 6.40273 12.1554 6.17887 11.8792 6.17887ZM13.5518 9.09257L13.5518 10.8935L15.9506 12.5888C16.2265 12.7839 16.6077 12.5865 16.6077 12.2485V7.74739C16.6077 7.40996 16.2276 7.21248 15.9515 7.40646L13.5518 9.09257Z" fill="#00ACE3"/>
</svg>
