<svg width="20" height="20" viewBox="0 0 20 20" fill="none" xmlns="http://www.w3.org/2000/svg">
	<path fill-rule="evenodd" clip-rule="evenodd" d="M10.2798 5.49939C9.44474 4.68683 7.41597 4.38076 5.97408 5.82264C4.52828 7.26843 4.85725 9.2266 5.62471 9.99405C6.407 10.7763 8.84562 13.14 10.1396 14.3941L10.1397 14.3942C10.4903 14.7341 10.7569 14.9924 10.8836 15.1158C11.0515 15.2791 11.5248 15.5065 12.1183 15.5574C12.6937 15.6067 13.2398 15.4778 13.6118 15.1158C14.4549 14.2954 14.3473 13.0818 13.7654 12.5155C13.3516 12.1129 12.1351 10.9305 10.9852 9.81281L10.1419 8.99319L8.60477 7.4991C8.5505 7.44629 8.38514 7.34499 8.18084 7.31864C8.00276 7.29568 7.81996 7.33061 7.6468 7.4991C7.46545 7.67555 7.40515 7.89014 7.41027 8.09589C7.41289 8.20074 7.43291 8.29476 7.45781 8.36491C7.47382 8.41002 7.48721 8.43285 7.49111 8.4395L7.49125 8.43975C7.81237 8.75433 10.8069 11.737 11.0991 12.0292C11.3269 12.257 11.3269 12.6264 11.0991 12.8542C10.8713 13.082 10.502 13.082 10.2742 12.8542C9.97451 12.5545 6.89703 9.48932 6.66454 9.2631C6.51742 9.11995 6.41985 8.92841 6.35837 8.75521C6.29275 8.57038 6.24969 8.35452 6.24397 8.12494C6.23244 7.66181 6.37451 7.10925 6.8332 6.66294C7.30008 6.20865 7.85593 6.10041 8.33006 6.16156C8.77796 6.21932 9.17837 6.42941 9.41837 6.66294L10.9555 8.15701L11.7983 8.9762C12.9481 10.0937 14.1649 11.2764 14.579 11.6794C15.653 12.7244 15.7177 14.6946 14.4254 15.9519C13.7298 16.6288 12.7998 16.7868 12.0187 16.7198C11.2556 16.6544 10.4919 16.3624 10.07 15.952C9.94647 15.8317 9.68446 15.5778 9.3386 15.2425C8.04799 13.9916 5.58976 11.609 4.79975 10.819C3.5712 9.59045 3.25322 6.89358 5.14913 4.99768C7.04896 3.09785 9.80785 3.41235 11.0934 4.66323C11.6281 5.18344 12.3092 5.86936 12.985 6.55086L13.1099 6.67682C13.7452 7.31759 14.368 7.94576 14.8603 8.42855C15.0903 8.65413 15.0939 9.02346 14.8683 9.25347C14.6427 9.48348 14.2734 9.48707 14.0434 9.26149C13.545 8.77269 12.9166 8.13891 12.2837 7.50053L12.1565 7.37233C11.4789 6.68888 10.8055 6.01089 10.2798 5.49939Z" fill="#00ACE3"/>
</svg>
