<svg width="20" height="20" viewBox="0 0 20 20" fill="none" xmlns="http://www.w3.org/2000/svg">
	<path fill-rule="evenodd" clip-rule="evenodd" d="M16.2471 11.2977C16.9921 10.6054 16.9921 9.42601 16.2471 8.73373L11.7318 4.53794C10.8254 3.69575 9.35077 4.3385 9.35077 5.57572V5.78738L10.5174 6.87148V5.57572C10.5174 5.35739 10.7777 5.24396 10.9376 5.39258L15.453 9.58837C15.7013 9.81913 15.7013 10.2123 15.453 10.443L10.9376 14.6388C10.7777 14.7874 10.5174 14.674 10.5174 14.4557V13.1599L9.35077 14.244V14.4557C9.35077 15.6929 10.8255 16.3356 11.7318 15.4935L16.2471 11.2977ZM10.9803 8.73454C11.7253 9.42683 11.7253 10.6062 10.9803 11.2985L6.46499 15.4943C5.55866 16.3365 4.08398 15.6937 4.08398 14.4565V5.57654C4.08398 4.33932 5.55866 3.69656 6.46499 4.53875L10.9803 8.73454ZM10.1862 10.4438C10.4345 10.2131 10.4345 9.81995 10.1862 9.58919L5.67083 5.3934C5.51089 5.24478 5.25065 5.3582 5.25065 5.57654L5.25065 14.4565C5.25065 14.6748 5.51089 14.7882 5.67083 14.6396L10.1862 10.4438Z" fill="#00ACE3"/>
</svg>
