<svg width="20" height="20" viewBox="0 0 20 20" fill="none" xmlns="http://www.w3.org/2000/svg">
	<path fill-rule="evenodd" clip-rule="evenodd" d="M13.75 4.91667H6.25C5.51362 4.91667 4.91667 5.51362 4.91667 6.25V13.75C4.91667 14.4864 5.51362 15.0833 6.25 15.0833H13.75C14.4864 15.0833 15.0833 14.4864 15.0833 13.75V6.25C15.0833 5.51362 14.4864 4.91667 13.75 4.91667ZM6.25 3.75C4.86929 3.75 3.75 4.86929 3.75 6.25V13.75C3.75 15.1307 4.86929 16.25 6.25 16.25H13.75C15.1307 16.25 16.25 15.1307 16.25 13.75V6.25C16.25 4.86929 15.1307 3.75 13.75 3.75H6.25ZM8.5 7.79671L8.5095 7.79405C8.74488 7.72844 9.05429 7.66667 9.375 7.66667C9.62021 7.66667 9.83456 7.75624 10.1741 7.91148L10.2042 7.92522C10.5134 8.06685 10.9393 8.2619 11.4583 8.2619C11.6268 8.2619 11.7792 8.25026 11.9167 8.23013V10.6116C11.8173 10.6401 11.6686 10.6667 11.4583 10.6667C11.2131 10.6667 10.9988 10.5771 10.6592 10.4219L10.6292 10.4081C10.3199 10.2665 9.89404 10.0714 9.375 10.0714C9.05455 10.0714 8.75384 10.1136 8.5 10.1672L8.5 7.79671ZM8.5 11.3681V12.9167C8.5 13.2388 8.23883 13.5 7.91667 13.5C7.5945 13.5 7.33333 13.2388 7.33333 12.9167L7.33333 7.39433C7.33314 7.3856 7.33314 7.37688 7.33333 7.36819V7.08333C7.33333 6.76117 7.5945 6.5 7.91667 6.5C8.06293 6.5 8.19662 6.55383 8.29901 6.64276C8.58753 6.56894 8.96511 6.5 9.375 6.5C9.89404 6.5 10.3199 6.69505 10.6292 6.83668L10.6592 6.85043C10.9988 7.00566 11.2131 7.09524 11.4583 7.09524C11.8045 7.09524 11.9841 7.0233 12.0522 6.98831C12.3015 6.86006 12.5515 6.91742 12.7 6.99309C12.8451 7.06705 13.0833 7.2619 13.0833 7.60274V10.9524C13.0833 11.0937 13.032 11.2302 12.939 11.3365L12.5 10.9524C12.939 11.3365 12.9384 11.3371 12.9384 11.3371L12.9379 11.3378L12.9367 11.3391L12.9343 11.3418L12.9291 11.3476L12.9172 11.3602C12.9085 11.3692 12.8985 11.3792 12.8871 11.39C12.8642 11.4115 12.8355 11.4363 12.8006 11.4629C12.7306 11.5162 12.6365 11.576 12.5147 11.6317C12.269 11.744 11.9249 11.8333 11.4583 11.8333C10.9393 11.8333 10.5134 11.6383 10.2042 11.4966L10.1741 11.4829C9.83456 11.3277 9.62021 11.2381 9.375 11.2381C9.05429 11.2381 8.74488 11.2999 8.5095 11.3655L8.5 11.3681Z" fill="#00ACE3"/>
</svg>
