<svg width="20" height="20" viewBox="0 0 20 20" fill="none" xmlns="http://www.w3.org/2000/svg">
<path fill-rule="evenodd" clip-rule="evenodd" d="M9.02213 14.6043C10.3553 14.6043 11.5811 14.1443 12.5493 13.3743L15.8374 16.6624C16.0652 16.8902 16.4346 16.8902 16.6624 16.6624C16.8902 16.4346 16.8902 16.0652 16.6624 15.8374L13.3834 12.5585C14.2014 11.5756 14.6934 10.3117 14.6934 8.93301C14.6934 5.80084 12.1543 3.26172 9.02213 3.26172C5.88996 3.26172 3.35083 5.80084 3.35083 8.93301C3.35083 12.0652 5.88996 14.6043 9.02213 14.6043ZM9.02213 13.4376C11.51 13.4376 13.5268 11.4209 13.5268 8.93301C13.5268 6.44518 11.51 4.42839 9.02213 4.42839C6.53429 4.42839 4.5175 6.44518 4.5175 8.93301C4.5175 11.4209 6.53429 13.4376 9.02213 13.4376Z" fill="white"/>
</svg>
