<svg width="24" height="21" viewBox="0 0 24 21" fill="none" xmlns="http://www.w3.org/2000/svg">
	<path fill-rule="evenodd" clip-rule="evenodd" d="M13.0892 4.52229C13.6254 3.985 14.5126 3.9131 15.0894 4.45991L15.101 4.47121L18.0168 7.39306C18.588 7.96716 18.5247 8.876 17.9786 9.42242C17.4319 9.9695 16.5228 10.0315 15.9504 9.45646L15.823 9.32869L12.7183 13.4102L12.9449 13.6375C12.9504 13.643 12.9559 13.6487 12.9612 13.6544C13.4937 14.2332 13.4186 15.1111 12.8873 15.6438C12.3554 16.1771 11.4773 16.253 10.8988 15.7179C10.8932 15.7127 10.8877 15.7074 10.8823 15.702L9.25484 14.0708L6.5798 16.7459C6.35199 16.9737 5.98264 16.9737 5.75484 16.7459C5.52703 16.5181 5.52703 16.1487 5.75484 15.9209L8.43082 13.2449L6.80351 11.614L6.79168 11.6018C6.2479 11.0241 6.31975 10.1373 6.85532 9.60063C7.39152 9.06335 8.27868 8.99145 8.85553 9.53825L8.86725 9.54968L9.092 9.77503L13.1633 6.66187L13.0373 6.53549L13.0256 6.52341C12.4818 5.94577 12.5537 5.05894 13.0892 4.52229ZM14.283 5.30313C14.2088 5.23713 14.0475 5.2137 13.915 5.34641C13.782 5.47968 13.8047 5.64404 13.8714 5.71976L14.4593 6.30916C14.5779 6.42813 14.6395 6.59248 14.6283 6.76012C14.617 6.92776 14.534 7.08241 14.4006 7.18447L9.39442 11.0124C9.16193 11.1902 8.83371 11.1682 8.62705 10.961L8.04908 10.3814C7.97484 10.3155 7.81353 10.2921 7.68111 10.4248C7.54813 10.558 7.57079 10.7223 7.63751 10.7981L9.03183 12.1953L10.2772 13.4458L11.6965 14.8663C11.772 14.9301 11.9309 14.9506 12.0612 14.82C12.1921 14.6888 12.1722 14.5269 12.1076 14.45L11.533 13.8739C11.3271 13.6675 11.3053 13.3408 11.4817 13.1088L15.2994 8.08999C15.4014 7.95584 15.5565 7.87238 15.7247 7.86112C15.8928 7.84986 16.0577 7.91188 16.1767 8.03123L16.7768 8.63294C16.8478 8.70434 17.0156 8.73564 17.1534 8.59774C17.2917 8.4593 17.262 8.28891 17.1901 8.21624L14.283 5.30313Z" fill="#A7A7A7"/>
</svg>
