<svg width="24" height="24" viewBox="0 0 24 24" fill="none" xmlns="http://www.w3.org/2000/svg">
	<path fill-rule="evenodd" clip-rule="evenodd" d="M15.9578 9.1072L14.1421 11.4942L15.1411 12.4932L16.5861 10.5937L16.739 10.747C17.4258 11.437 18.5168 11.3626 19.1729 10.7061C19.8281 10.0504 19.9042 8.95981 19.2187 8.27089L15.7198 4.76467L15.7058 4.75111C15.0136 4.09494 13.949 4.18122 13.3056 4.82596C12.6629 5.46994 12.5767 6.53415 13.2292 7.22731L13.2433 7.2418L13.3945 7.39347L11.4943 8.84645L12.4931 9.84516L14.8792 8.02058C15.0394 7.89811 15.1389 7.71253 15.1524 7.51136C15.1659 7.31019 15.092 7.11297 14.9496 6.97021L14.2443 6.26293C14.1642 6.17206 14.1369 5.97484 14.2965 5.81491C14.4555 5.65566 14.6491 5.68377 14.7382 5.76298L18.2266 9.25871C18.3129 9.34591 18.3486 9.55038 18.1826 9.7165C18.0172 9.88199 17.8159 9.84443 17.7307 9.75875L17.0106 9.03669C16.8677 8.89348 16.67 8.81905 16.4681 8.83256C16.2663 8.84608 16.0802 8.94622 15.9578 9.1072ZM9.39095 10.4548L6.35766 7.42154C6.08429 7.14817 6.08429 6.70495 6.35766 6.43159C6.63103 6.15822 7.07424 6.15822 7.34761 6.43159L16.9522 16.0362C17.2256 16.3095 17.2256 16.7527 16.9522 17.0261C16.6788 17.2995 16.2356 17.2995 15.9622 17.0261L13.5375 14.6014L12.8605 15.4915L13.1324 15.7642C13.1391 15.7708 13.1456 15.7776 13.1519 15.7845C13.791 16.4791 13.7008 17.5326 13.0633 18.1718C12.4251 18.8118 11.3713 18.9028 10.6771 18.2607C10.6704 18.2544 10.6638 18.2481 10.6573 18.2416L8.70407 16.286L5.49576 19.4943C5.22239 19.7676 4.77917 19.7676 4.50581 19.4943C4.23244 19.2209 4.23244 18.7777 4.50581 18.5043L7.71616 15.294L7.44526 15.022L5.76275 13.336L5.74855 13.3213C5.09601 12.6282 5.18224 11.564 5.82492 10.92C6.46836 10.2752 7.53296 10.189 8.22517 10.8451L8.23924 10.8588L8.50893 11.1293L9.39095 10.4548ZM12.5385 13.6023L11.3766 15.1297C11.1648 15.4082 11.1911 15.8002 11.4381 16.0479L12.1276 16.7392C12.2051 16.8315 12.229 17.0258 12.072 17.1832C11.9157 17.3399 11.7249 17.3153 11.6344 17.2388L9.93121 15.5342L8.43674 14.0335L6.76355 12.3569C6.68348 12.266 6.65629 12.0688 6.81587 11.9089C6.97477 11.7497 7.16834 11.7778 7.25743 11.857L7.951 12.5524C8.19899 12.8011 8.59286 12.8275 8.87184 12.6142L10.3897 11.4535L12.5385 13.6023Z" fill="#A7A7A7"/>
</svg>
