<svg xmlns="http://www.w3.org/2000/svg" width="42" height="42" fill="none"><rect width="42" height="42" fill="#fff" fill-opacity=".05" rx="21"/><rect width="41" height="41" x=".5" y=".5" stroke="#fff" stroke-opacity=".25" rx="20.5"/><path fill="#EDEEF0" fill-rule="evenodd" d="M14.716 31.304v-3.371l-1.114-.356a2.402 2.402 0 0 1-1.669-2.287v-9.623a2.4 2.4 0 0 1 2.4-2.4h13.334a2.4 2.4 0 0 1 2.4 2.4v6.335a.8.8 0 1 0 1.6 0v-6.335a4 4 0 0 0-4-4H14.333a4 4 0 0 0-4 4v9.623a4.002 4.002 0 0 0 2.783 3.811v2.203c0 1.652 1.998 2.48 3.167 1.312l3.325-3.325a.82.82 0 0 0 .058.002H21a.8.8 0 0 0 0-1.6v-.003h-2.055l-3.794 3.794a.234.234 0 0 1-.13.075.273.273 0 0 1-.148-.02.273.273 0 0 1-.119-.09.233.233 0 0 1-.038-.145Zm.382-13.145a.8.8 0 0 1 .8-.8h9.74a.8.8 0 0 1 0 1.6h-9.74a.8.8 0 0 1-.8-.8Zm0 3.711a.8.8 0 0 1 .8-.8h7.42a.8.8 0 0 1 0 1.6h-7.42a.8.8 0 0 1-.8-.8ZM28.661 25.7l1.645 1.644h-5.41a.8.8 0 0 0 0 1.6h5.409l-1.643 1.643a.8.8 0 0 0 1.13 1.132l2.992-2.991.009-.009.01-.01a.798.798 0 0 0 .234-.545v-.02a.797.797 0 0 0-.234-.566l-.01-.01-.01-.009-2.99-2.99a.8.8 0 0 0-1.131 1.13Z" clip-rule="evenodd"/></svg>