<svg width="42" height="41" viewBox="0 0 42 41" fill="none" xmlns="http://www.w3.org/2000/svg">
<path fill-rule="evenodd" clip-rule="evenodd" d="M32.4449 11.9064C30.4499 9.44638 27.4224 7.84055 24.3074 7.20846C21.2274 6.49096 17.9899 6.83263 15.1199 8.13096C12.2499 9.44638 9.9049 11.6672 8.4874 14.4347C7.0699 17.2022 6.6499 20.3626 7.2974 23.4035C7.9449 26.4443 9.6249 29.1605 12.0574 31.1593C14.4899 33.141 17.5524 34.2685 20.7199 34.3539C23.8874 34.4393 27.0024 33.4656 29.5399 31.6035C30.0124 31.2618 30.0999 30.6297 29.7499 30.1685C29.3999 29.7072 28.7524 29.6218 28.2799 29.9635C26.1274 31.5522 23.4674 32.3722 20.7724 32.3039C18.0774 32.2355 15.4699 31.2789 13.4049 29.5876C11.3399 27.8964 9.9049 25.573 9.3449 22.9935C8.7849 20.4139 9.1524 17.7318 10.3599 15.3743C11.5674 13.0168 13.5624 11.1205 15.9949 10.0101C18.4449 8.89971 21.2099 8.6093 23.8349 9.2243H23.8699C26.5999 9.78805 29.1549 11.1718 30.7999 13.2047C32.4274 15.2035 33.0749 17.8855 33.0749 20.6189V21.883C33.0749 23.5231 31.7974 24.6676 30.0299 24.6676C28.2624 24.6676 26.8624 23.4718 26.8624 21.883V20.7385C26.8624 20.7385 26.8624 20.6531 26.8624 20.6018C26.8624 20.5505 26.8624 20.5164 26.8624 20.4651V15.511C26.8624 14.9472 26.3899 14.486 25.8124 14.486C25.2349 14.486 24.7624 14.9472 24.7624 15.511V15.9551C23.7124 15.0326 22.3474 14.4518 20.8424 14.4518C17.4649 14.4518 14.8049 17.2535 14.8049 20.6018C14.8049 23.9501 17.4649 26.7518 20.8424 26.7518C22.7674 26.7518 24.4474 25.8122 25.5499 24.4114C26.5124 25.8464 28.2449 26.7006 30.0474 26.7006C32.8124 26.7006 35.1924 24.7872 35.1924 21.866V20.6018C35.1924 17.5951 34.4749 14.4005 32.4624 11.9235L32.4449 11.9064ZM20.8249 24.6847C18.7074 24.6847 16.8874 22.891 16.8874 20.5847C16.8874 18.2785 18.7074 16.4847 20.8249 16.4847C22.9424 16.4847 24.6749 18.2101 24.7449 20.448V20.7214C24.6749 22.9764 22.9074 24.6847 20.8249 24.6847Z" fill="#00ACE3" stroke="#00ACE3" stroke-width="0.3"/>
</svg>
