<svg width="42" height="41" viewBox="0 0 42 41" fill="none" xmlns="http://www.w3.org/2000/svg">
<path d="M22.0538 14.8348C22.4568 13.7653 23.3533 12.8511 24.5028 12.2236C25.6519 11.5963 27.0505 11.2575 28.4519 11.3364C29.809 11.4127 31.0762 11.8838 32.0348 12.7943C32.9861 13.6978 33.7225 15.1187 33.869 17.2595C34.0653 20.1296 32.5795 22.9168 30.1205 25.5825C27.6717 28.237 24.3938 30.6229 21.3198 32.6697C21.1151 32.806 20.8537 32.8095 20.6509 32.6854C17.3609 30.6727 14.0919 28.2872 11.7115 25.6332C9.32626 22.9739 7.93469 20.162 8.13329 17.2595C8.2801 15.1139 9.00774 13.6922 9.94574 12.7902C10.8897 11.8826 12.1374 11.4138 13.4799 11.338C16.2499 11.1816 19.0639 12.6898 19.96 14.8654C20.1298 15.2775 20.5396 15.5525 21.0009 15.5525C21.4754 15.5525 21.8929 15.262 22.0538 14.8348ZM36.0641 17.1161C35.8879 14.5409 34.9742 12.5881 33.5682 11.2526C32.1696 9.92409 30.3725 9.29084 28.5784 9.18992C25.7583 9.03128 22.7008 10.1963 20.9779 12.3622C19.2126 10.2073 16.1697 9.03258 13.353 9.19159C11.5679 9.29237 9.78663 9.92698 8.40275 11.2577C7.01296 12.5941 6.11407 14.5456 5.93819 17.1161C5.68472 20.8205 7.47878 24.1758 10.0571 27.0504C12.6404 29.9306 16.1132 32.446 19.4835 34.5078C20.4337 35.0891 21.6391 35.0586 22.5585 34.4465C25.6595 32.3818 29.1206 29.8774 31.7545 27.0221C34.3782 24.1779 36.3186 20.8357 36.0641 17.1161Z" fill="#FF5752" stroke="#FF5752" stroke-width="0.1"/>
</svg>
