<svg width="20" height="20" viewBox="0 0 20 20" fill="none" xmlns="http://www.w3.org/2000/svg">
	<path fill-rule="evenodd" clip-rule="evenodd" d="M5.20393 15.1654C5.30901 14.3535 5.64265 13.548 6.30032 12.9292C7.01112 12.2603 8.16512 11.7487 9.99994 11.7487C10.4409 11.7487 10.8425 11.7784 11.2078 11.8325C11.5265 11.8797 11.8232 11.6597 11.8704 11.341C11.9176 11.0223 11.6976 10.7257 11.3789 10.6784C10.9521 10.6152 10.493 10.582 9.99994 10.582C7.94248 10.582 6.47678 11.1612 5.50082 12.0795C4.52956 12.9935 4.10773 14.1829 4.01858 15.2855C3.97002 15.8861 4.4617 16.332 4.99994 16.332H10.8939C11.2161 16.332 11.4772 16.0709 11.4772 15.7487C11.4772 15.4265 11.2161 15.1654 10.8939 15.1654H5.20393Z" fill="#1F86FF"/>
	<path fill-rule="evenodd" clip-rule="evenodd" d="M9.41293 4.10902C9.18267 4.18535 9.01975 4.27458 8.95241 4.32415C8.26575 4.82961 7.91478 5.93769 8.16077 7.05833C8.39736 8.13614 9.06794 8.78054 9.99322 8.78054C10.5861 8.78054 11.0203 8.52989 11.3413 8.11817C11.6833 7.67945 11.8987 7.04307 11.915 6.36169C11.9313 5.67928 11.746 5.06572 11.43 4.65182C11.1413 4.27378 10.7015 3.9987 9.99325 3.9987C9.84904 3.9987 9.6394 4.03395 9.41293 4.10902ZM8.26077 3.3846C5.93306 5.0981 6.70557 9.94721 9.99322 9.94721C13.9403 9.94721 14.2811 2.83203 9.99325 2.83203C9.39024 2.83203 8.64729 3.10007 8.26077 3.3846Z" fill="#1F86FF"/>
	<path fill-rule="evenodd" clip-rule="evenodd" d="M14.1666 10.9987C14.4888 10.9987 14.75 11.2599 14.75 11.582V15.7487C14.75 16.0709 14.4888 16.332 14.1666 16.332C13.8445 16.332 13.5833 16.0709 13.5833 15.7487V11.582C13.5833 11.2599 13.8445 10.9987 14.1666 10.9987Z" fill="#1F86FF"/>
	<path fill-rule="evenodd" clip-rule="evenodd" d="M11.5 13.6654C11.5 13.3432 11.7611 13.082 12.0833 13.082H16.25C16.5721 13.082 16.8333 13.3432 16.8333 13.6654C16.8333 13.9875 16.5721 14.2487 16.25 14.2487H12.0833C11.7611 14.2487 11.5 13.9875 11.5 13.6654Z" fill="#1F86FF"/>
</svg>
