<svg width="14" height="4" viewBox="0 0 14 4" fill="none" xmlns="http://www.w3.org/2000/svg">
	<path fill-rule="evenodd" clip-rule="evenodd" d="M3.34009 1.99988C3.34009 2.90159 2.60911 3.63257 1.7074 3.63257C0.805688 3.63257 0.074707 2.90159 0.074707 1.99988C0.074707 1.09817 0.805688 0.367188 1.7074 0.367188C2.60911 0.367188 3.34009 1.09817 3.34009 1.99988ZM8.63254 1.99988C8.63254 2.90159 7.90156 3.63257 6.99985 3.63257C6.09814 3.63257 5.36716 2.90159 5.36716 1.99988C5.36716 1.09817 6.09814 0.367188 6.99985 0.367188C7.90156 0.367188 8.63254 1.09817 8.63254 1.99988ZM12.2923 3.63257C13.194 3.63257 13.925 2.90159 13.925 1.99988C13.925 1.09817 13.194 0.367188 12.2923 0.367188C11.3906 0.367188 10.6596 1.09817 10.6596 1.99988C10.6596 2.90159 11.3906 3.63257 12.2923 3.63257Z" fill="#853AF5"/>
</svg>
