<svg xmlns="http://www.w3.org/2000/svg" width="75" height="98">
  <g fill="none" fill-rule="evenodd">
    <path fill="#E5E8EB" d="M0 0h54l21 22.227V98H0z"/>
    <g fill="#B9BEC4">
      <path fill-rule="nonzero" d="M7 34.897l7.515 53.474 23.219-3.263-.676-34.282-6.84-19.191 2.611-.367L7 34.897zM36.367 83.28l-21.14 2.97L8.27 36.739l21.139-2.97 6.227 17.258.732 32.255z"/>
      <path d="M37.529 79.675l-.147-15.915-9.094-6.782-10.23 13.435 1.654 11.766z"/>
    </g>
    <path fill="#535C69" d="M54 0l21 22.227H54z" opacity=".3"/>
    <g fill="#B9BEC4" transform="rotate(5 -359.005 511.676)">
      <path fill-rule="nonzero" d="M.316.001l3.638 19.956L1 54h24V.001H.316zM24 52H2.353l1.601-16.033 1.621-16.01L2 2h22v50z"/>
      <path d="M20.008 49.591v-2.97l-12-11.881L1.96 49.591z"/>
      <ellipse cx="11.712" cy="14.785" rx="5.231" ry="5.172"/>
    </g>
  </g>
</svg>
