<svg width="20" height="20" viewBox="0 0 20 20" fill="none" xmlns="http://www.w3.org/2000/svg">
<path fill-rule="evenodd" clip-rule="evenodd" d="M10.0002 15.8333C9.678 15.8333 9.41683 15.5722 9.41683 15.25V10.5832H4.75033C4.42816 10.5832 4.16699 10.322 4.16699 9.99983C4.16699 9.67766 4.42816 9.41649 4.75033 9.41649H9.41683V4.74999C9.41683 4.42782 9.678 4.16666 10.0002 4.16666C10.3223 4.16666 10.5835 4.42782 10.5835 4.74999V9.41649H15.2503C15.5725 9.41649 15.8337 9.67766 15.8337 9.99983C15.8337 10.322 15.5725 10.5832 15.2503 10.5832H10.5835V15.25C10.5835 15.5722 10.3223 15.8333 10.0002 15.8333Z" fill="#A7A7A7"/>
</svg>
