<svg xmlns="http://www.w3.org/2000/svg" width="30" height="30" viewBox="0 0 30 30" fill="none">
	<path d="M9.66486 9.55114C9.24822 9.87138 8.91322 10.2024 8.6493 10.5475C8.58377 10.6332 8.46341 10.6573 8.37283 10.5987L6.62013 9.46482C6.52638 9.40417 6.50022 9.27835 6.56478 9.18724C6.99302 8.58284 7.51675 8.03233 8.13324 7.55848C9.82091 6.26128 11.8849 5.7836 13.8596 6.0595L14.2215 4.22154C14.2569 4.04194 14.4345 3.93181 14.5958 4.01839C15.667 4.59342 17.5345 6.72702 18.1307 7.40822L18.1485 7.42857C18.2091 7.49776 18.2204 7.59666 18.1632 7.66867C17.5264 8.47012 14.9561 9.94209 13.8235 10.5683C13.5962 10.6939 13.3255 10.5092 13.3565 10.2513L13.5636 8.52898C12.219 8.34215 10.8139 8.66794 9.66486 9.55114Z" fill="#828282"/>
	<path d="M5.81289 17.7801L9.83001 12.8639C9.8951 12.7843 10.01 12.767 10.0956 12.8239L12.0175 14.1021C12.1161 14.1677 12.1365 14.3042 12.0612 14.3957L8.7677 18.402L14.2508 22.8825L21.6887 13.8719L18.7731 11.4895C18.6763 11.4104 18.675 11.2629 18.7703 11.1821L20.9536 9.32985C21.0271 9.26743 21.1348 9.26644 21.2095 9.32749L24.2941 11.848C25.1151 12.5188 25.2949 13.657 24.6957 14.3903L15.4746 25.675C14.8755 26.4082 13.7243 26.4588 12.9034 25.788L6.21447 20.3223C5.39354 19.6515 5.21375 18.5133 5.81289 17.7801Z" fill="#828282"/>
</svg>