<svg width="26" height="26" viewBox="0 0 26 26" fill="none" xmlns="http://www.w3.org/2000/svg">
	<path fill-rule="evenodd" clip-rule="evenodd" d="M7.58331 5.26855C5.78839 5.26855 4.33331 6.72363 4.33331 8.51856V12.7445C4.33331 13.9459 4.98523 14.9951 5.95461 15.5576V17.0902C5.95461 18.4331 7.57814 19.1055 8.52766 18.156L10.533 16.1507C10.5833 16.1004 10.629 16.0482 10.6703 15.9945H15.0267C16.8217 15.9945 18.2767 14.5394 18.2767 12.7445V12.387H18.6333C19.4709 12.387 20.15 13.0661 20.15 13.9037V16.7387C20.15 17.3198 19.8236 17.8272 19.337 18.0829L18.5259 18.5092V20.2967L16.4845 18.2554H14.1225C13.5291 18.2554 13.0154 17.9146 12.7662 17.4182H11.1655C11.4741 18.7663 12.6808 19.772 14.1225 19.772H15.8563L17.4696 21.3853C18.4191 22.3348 20.0426 21.6623 20.0426 20.3195V19.4255C21.0082 18.918 21.6666 17.9052 21.6666 16.7387V13.9037C21.6666 12.2284 20.3086 10.8704 18.6333 10.8704H18.2767V8.51855C18.2767 6.72363 16.8217 5.26855 15.0267 5.26855H7.58331ZM7.47128 14.6841L6.71577 14.2457C6.19481 13.9435 5.84998 13.3834 5.84998 12.7445V8.51856C5.84998 7.56126 6.62602 6.78522 7.58331 6.78522H15.0267C15.984 6.78522 16.7601 7.56126 16.7601 8.51855V12.7445C16.7601 13.7018 15.984 14.4778 15.0267 14.4778H9.92355L9.46821 15.0697C9.46821 15.0697 9.46498 15.0738 9.46055 15.0782L7.47128 17.0675V14.6841Z" fill="#7AB7FF"/>
</svg>