<svg viewBox="0 0 24 24" fill="none" xmlns="http://www.w3.org/2000/svg">
<path fill-rule="evenodd" clip-rule="evenodd" d="M9.6665 2.71318C9.6665 2.32658 9.9799 2.01318 10.3665 2.01318H13.641C14.0276 2.01318 14.341 2.32658 14.341 2.71318C14.341 3.09978 14.0276 3.41318 13.641 3.41318H10.3665C9.9799 3.41318 9.6665 3.09978 9.6665 2.71318ZM11.8914 7.26709C12.278 7.26709 12.5914 7.58049 12.5914 7.96709V11.3705L15.3444 11.3705C15.731 11.3705 16.0444 11.6839 16.0444 12.0705C16.0444 12.4571 15.731 12.7705 15.3444 12.7705L11.8914 12.7705C11.7058 12.7705 11.5277 12.6968 11.3964 12.5655C11.2652 12.4342 11.1914 12.2562 11.1914 12.0705V7.96709C11.1914 7.58049 11.5048 7.26709 11.8914 7.26709ZM19.3934 9.50455C19.6562 10.2856 19.7986 11.122 19.7986 11.9916C19.7986 16.2965 16.3087 19.7864 12.0038 19.7864C7.69883 19.7864 4.20898 16.2965 4.20898 11.9916C4.20898 7.68662 7.69883 4.19678 12.0038 4.19678C12.9501 4.19678 13.857 4.36541 14.6962 4.67427C14.5083 5.09831 14.3993 5.56505 14.3877 6.0559C13.651 5.75975 12.8464 5.59678 12.0038 5.59678C8.47203 5.59678 5.60898 8.45982 5.60898 11.9916C5.60898 15.5233 8.47203 18.3864 12.0038 18.3864C15.5355 18.3864 18.3986 15.5233 18.3986 11.9916C18.3986 11.212 18.2591 10.4651 18.0037 9.77429L18.0175 9.77432C18.5045 9.77432 18.969 9.67845 19.3934 9.50455ZM18.0173 8.79771C19.483 8.79771 20.6712 7.60948 20.6712 6.14373C20.6712 4.67797 19.483 3.48975 18.0173 3.48975C16.5515 3.48975 15.3633 4.67797 15.3633 6.14373C15.3633 7.60948 16.5515 8.79771 18.0173 8.79771ZM18.0173 7.39771C18.7098 7.39771 19.2712 6.83629 19.2712 6.14373C19.2712 5.45117 18.7098 4.88975 18.0173 4.88975C17.3247 4.88975 16.7633 5.45117 16.7633 6.14373C16.7633 6.83629 17.3247 7.39771 18.0173 7.39771Z" fill="#00ACE3"/>
</svg>
